<svg width="286" height="56" viewBox="0 0 286 56" xmlns="http://www.w3.org/2000/svg">
<path d="M11.2636 13.5226H8.5461V26.851H11.8846C17.2029 26.851 17.9837 22.6003 17.9837 20.0352C17.9837 18.3131 17.4365 13.5287 11.2636 13.5287M12.3519 33.867H0.387341C0.153707 33.867 0 33.7517 0 33.4849V8.2349C0 7.39202 0.811572 6.51276 1.74611 6.51276H14.0181C23.2651 6.51276 26.5237 13.2558 26.5237 20.1504C26.5237 28.5368 22.0231 33.867 12.3519 33.867Z" fill="#F39200"/>
<path d="M84.1282 4.98452H81.798C80.7897 4.98452 80.2425 4.40845 80.2425 3.45035V1.53416C80.2486 0.576069 80.8266 0 81.798 0H84.1282C85.0996 0 85.6837 0.576069 85.6837 1.53416V3.45035C85.6837 4.37206 85.0996 4.98452 84.1282 4.98452ZM76.0924 4.98452H73.7561C72.7477 4.98452 72.2067 4.40845 72.2067 3.45035V1.53416C72.2067 0.576069 72.7908 0 73.7561 0H76.0924C77.0638 0 77.6479 0.576069 77.6479 1.53416V3.45035C77.6479 4.37206 77.0638 4.98452 76.0924 4.98452Z" fill="#F39200"/>
<path d="M79.0253 15.6689H78.9515L76.2709 24.0978H81.5092L79.0253 15.6689ZM92.9327 33.8667H84.6202C84.5034 33.8667 84.3497 33.7878 84.3066 33.6362L83.2246 29.9615H74.4079L73.2459 33.5999C73.2029 33.7575 73.1291 33.8727 72.8586 33.8727H64.8966C64.706 33.8727 64.626 33.8303 64.706 33.5999L74.1436 8.24675C74.4571 7.40387 75.5454 6.5246 76.5475 6.5246H81.4047C82.6466 6.5246 83.4274 7.3311 83.7718 8.24675L93.1294 33.5271C93.2094 33.7636 93.0925 33.8727 92.9388 33.8727" fill="#F39200"/>
<path d="M107.447 13.0252H103.451V18.4645H107.915C109.821 18.4645 111.684 18.0037 111.684 15.7418C111.684 13.292 109.464 13.0252 107.447 13.0252ZM120.728 33.8668H112.022C111.794 33.8668 111.597 33.788 111.481 33.5575L106.507 24.7103H103.445V33.4848C103.445 33.7516 103.285 33.8668 103.051 33.8668H95.2861C95.0586 33.8668 94.9049 33.7152 94.9049 33.4848V8.23476C94.9049 7.39188 95.7226 6.51261 96.651 6.51261H111.179C116.03 6.51261 120.223 9.15647 120.223 14.329C120.223 18.8526 117.74 21.6481 114.358 22.9457L120.924 33.5575C121.041 33.788 120.924 33.8668 120.734 33.8668" fill="#F39200"/>
<path d="M41.73 34.5156C33.2638 34.5156 29.0707 30.8773 29.0707 23.2914V8.23476C29.0707 7.39188 29.8823 6.51261 30.8168 6.51261H35.8646C36.793 6.51261 37.6107 7.39794 37.6107 8.23476V21.4116C37.6107 24.207 37.6107 27.6938 41.7608 27.6938C45.9108 27.6938 45.8002 24.207 45.8002 21.4116V8.23476C45.8002 7.39188 46.6179 6.51261 47.5463 6.51261H52.594C53.5224 6.51261 54.3401 7.39794 54.3401 8.23476V23.2853C54.3401 30.8713 50.1839 34.5096 41.7177 34.5096" fill="#F39200"/>
<path d="M158.908 33.8668H151.143C150.91 33.8668 150.75 33.7152 150.75 33.4848V27.815H152.693L151.143 23.6006H149.2V22.0725H147.257V23.6006H142.363L140.808 27.815H142.751V33.4848C142.751 33.7516 142.597 33.8668 142.363 33.8668H134.592C134.365 33.8668 134.211 33.7152 134.211 33.4848V8.23476C134.211 7.39188 135.029 6.51261 135.957 6.51261H141.011C141.945 6.51261 142.757 7.39794 142.757 8.23476V16.5847H150.756V8.23476C150.756 7.39188 151.574 6.51261 152.508 6.51261H157.556C158.49 6.51261 159.302 7.39794 159.302 8.23476V33.4787C159.302 33.7455 159.148 33.8607 158.915 33.8607" fill="#F39200"/>
<path d="M184.751 33.8668H162.919C162.648 33.8668 162.531 33.7152 162.531 33.4848V8.23476C162.531 7.39188 163.349 6.51261 164.277 6.51261H182.956C183.89 6.51261 184.702 7.39794 184.702 8.23476V11.7943C184.702 12.6371 183.89 13.5225 182.956 13.5225H171.065V16.7363H180.859C181.794 16.7363 182.612 17.6156 182.612 18.4585V22.8609C182.612 23.1277 182.495 23.2489 182.218 23.2489H171.071V26.8448H184.751C185.022 26.8448 185.138 27.0025 185.138 27.2329V33.4787C185.138 33.7091 185.015 33.8607 184.751 33.8607" fill="#F39200"/>
<path d="M219.892 33.8668H212.588C212.317 33.8668 212.2 33.7152 212.2 33.4848V16.324H212.12L207.386 33.5575C207.343 33.7516 207.226 33.8668 206.919 33.8668H201.33C201.09 33.8668 200.9 33.7516 200.863 33.5575L196.123 16.324H196.043V33.4848C196.043 33.7516 195.926 33.8668 195.655 33.8668H188.351C188.081 33.8668 187.964 33.7516 187.964 33.4848V8.23476C187.964 7.39188 188.775 6.51261 189.71 6.51261H198.57C199.578 6.51261 200.316 7.35549 200.555 8.23476L204.091 22.594H204.165L207.7 8.23476C207.89 7.42826 208.671 6.51261 209.68 6.51261H218.539C219.474 6.51261 220.291 7.39794 220.291 8.23476V33.4787C220.291 33.7091 220.168 33.8607 219.904 33.8607" fill="#F39200"/>
<path d="M255.467 33.8668H248.163C247.892 33.8668 247.776 33.7152 247.776 33.4848V16.324H247.702L242.962 33.5575C242.925 33.7516 242.808 33.8668 242.494 33.8668H236.905C236.672 33.8668 236.475 33.7516 236.438 33.5575L231.698 16.324H231.618V33.4848C231.618 33.7516 231.501 33.8668 231.231 33.8668H223.926C223.656 33.8668 223.545 33.7516 223.545 33.4848V8.23476C223.545 7.39188 224.363 6.51261 225.291 6.51261H234.145C235.153 6.51261 235.891 7.35549 236.125 8.23476L239.66 22.594H239.74L243.275 8.23476C243.472 7.42826 244.246 6.51261 245.255 6.51261H254.114C255.043 6.51261 255.861 7.39794 255.861 8.23476V33.4787C255.861 33.7091 255.744 33.8607 255.479 33.8607" fill="#F39200"/>
<path d="M271.773 15.6689H271.699L269.018 24.0978H274.257L271.773 15.6689ZM285.68 33.8667H277.368C277.251 33.8667 277.097 33.7878 277.054 33.6362L275.972 29.9615H267.155L265.993 33.5999C265.95 33.7575 265.877 33.8727 265.606 33.8727H257.644C257.453 33.8727 257.374 33.8303 257.453 33.5999L266.891 8.24675C267.205 7.40387 268.293 6.5246 269.295 6.5246H274.152C275.394 6.5246 276.175 7.3311 276.519 8.24675L285.877 33.5271C285.957 33.7636 285.84 33.8727 285.686 33.8727" fill="#F39200"/>
<path d="M16.0591 51.2034V55.5755C16.0591 55.6846 16.0099 55.7332 15.9053 55.7332H14.7249C14.6265 55.7332 14.565 55.6907 14.565 55.5755V51.2034L10.6301 45.279C10.4272 44.9819 10.4887 44.6605 10.8515 44.6605H11.5278C11.9705 44.6605 12.1856 44.9697 12.3947 45.279L15.3704 49.9361L18.2663 45.279C18.4569 44.9697 18.7336 44.6605 19.1332 44.6605H19.7296C20.0739 44.6605 20.1661 44.9394 19.9509 45.279L16.0652 51.2034H16.0591Z" fill="black"/>
<path d="M8.74899 55.7333H7.56853C7.4763 55.7333 7.40867 55.6848 7.40867 55.5756V50.6578H1.49403V55.5756C1.49403 55.6848 1.44484 55.7333 1.34032 55.7333H0.159855C0.067631 55.7333 0 55.6848 0 55.5756V45.2731C0 44.9335 0.239783 44.6546 0.627124 44.6546H0.860758C1.25425 44.6546 1.48788 44.9214 1.48788 45.2731V49.4147H7.40252V45.2731C7.40252 44.9335 7.64231 44.6546 8.02965 44.6546H8.26943C8.66292 44.6546 8.89655 44.9214 8.89655 45.2731V55.5756C8.89655 55.6848 8.85352 55.7333 8.74285 55.7333" fill="black"/>
<path d="M26.9064 45.8978H23.1929V49.7605H26.3101C27.7119 49.7605 28.9046 49.4028 28.9046 47.7898C28.9046 46.7043 28.3083 45.8978 26.9064 45.8978ZM30.6323 55.7335H29.1875C29.0768 55.7335 28.9969 55.685 28.9354 55.5758L25.9781 50.9976H23.1929V55.5758C23.1929 55.685 23.1437 55.7335 23.033 55.7335H21.8526C21.7603 55.7335 21.6927 55.685 21.6927 55.5758V45.2733C21.6927 44.9458 21.9755 44.6547 22.3198 44.6547H26.9741C29.0829 44.6547 30.3864 45.7887 30.3864 47.5533C30.3864 50.1122 28.1668 50.8096 27.6319 50.9066L30.6876 55.5758C30.7307 55.6546 30.7184 55.7335 30.62 55.7335" fill="black"/>
<path d="M40.1423 55.7335H32.7152C32.6169 55.7335 32.5554 55.685 32.5554 55.5758V45.2733C32.5554 44.964 32.8259 44.6547 33.1825 44.6547H39.6136C39.9763 44.6547 40.2469 44.964 40.2469 45.2733C40.2469 45.5825 39.9763 45.8918 39.6136 45.8918H34.0494V49.3361H38.8758C39.2385 49.3361 39.5029 49.6453 39.5029 49.9546V50.4215C39.5029 50.5246 39.4599 50.5731 39.3431 50.5731H34.0433V54.4843H40.13C40.2223 54.4843 40.2838 54.5328 40.2838 54.6359V55.5697C40.2838 55.6789 40.2407 55.7274 40.13 55.7274" fill="black"/>
<path d="M46.2033 55.9999C44.0821 55.9999 41.9548 55.1024 41.5921 52.7739C41.5736 52.6526 41.6535 52.598 41.715 52.5859L42.8463 52.3373C42.9262 52.3191 42.9877 52.3797 43.0062 52.4768C43.2091 54.1383 44.783 54.7568 46.2463 54.7568C47.5989 54.7568 49.093 54.3323 49.093 52.7375C49.093 49.6813 41.9056 51.6945 41.9056 47.6317C41.9056 45.382 43.9346 44.3875 45.9819 44.3875C47.6973 44.3875 49.2528 45.0121 49.8492 46.5645C49.9783 46.9041 49.757 47.2618 49.4434 47.3892C49.1421 47.5104 48.6687 47.4195 48.5335 47.1405C47.9678 46.0066 47.1009 45.6367 45.9205 45.6367C44.6601 45.6367 43.3997 46.0854 43.3997 47.5286C43.3997 50.2574 50.587 48.3351 50.587 52.6951C50.587 55.0539 48.2445 55.9999 46.1971 55.9999" fill="black"/>
<path d="M57.4673 50.6641H54.055V54.4964H57.7993C59.0905 54.4964 59.9082 53.7203 59.9082 52.5135C59.9082 51.0703 58.7277 50.6701 57.4673 50.6701M57.0431 45.8978H54.055V49.4149H57.0431C58.74 49.4149 59.4348 48.8085 59.4348 47.6503C59.4348 46.1161 58.3342 45.8978 57.0431 45.8978ZM57.9899 55.7335H52.7209C52.6225 55.7335 52.5672 55.685 52.5672 55.5758V45.2733C52.5672 44.964 52.8377 44.6547 53.1943 44.6547H56.6373C58.6048 44.6547 60.935 44.7942 60.935 47.3653C60.935 48.5478 60.3078 49.427 59.2688 49.8515V49.8818C60.6521 50.1608 61.4022 51.1855 61.4022 52.5499C61.4022 54.1811 60.2218 55.7335 57.9899 55.7335Z" fill="black"/>
<path d="M68.1111 45.6306C65.3751 45.6306 64.2254 47.9592 64.2254 50.1907C64.2254 52.4222 65.3751 54.7507 68.1111 54.7507C70.8471 54.7507 71.9968 52.4222 71.9968 50.1907C71.9968 47.9592 70.8471 45.6306 68.1111 45.6306ZM68.1111 55.9999C64.539 55.9999 62.7314 53.2044 62.7314 50.1967C62.7314 47.1891 64.539 44.3875 68.1111 44.3875C71.6832 44.3875 73.4908 47.183 73.4908 50.1967C73.4908 53.2105 71.6832 55.9999 68.1111 55.9999Z" fill="black"/>
<path d="M79.3688 55.9999C77.2477 55.9999 75.1204 55.1024 74.7576 52.7739C74.7392 52.6526 74.8191 52.598 74.8806 52.5859L76.0119 52.3373C76.0918 52.3191 76.1533 52.3797 76.1717 52.4768C76.3746 54.1383 77.9486 54.7568 79.4119 54.7568C80.7645 54.7568 82.2585 54.3323 82.2585 52.7375C82.2585 49.6813 75.065 51.6945 75.065 47.6317C75.065 45.382 77.094 44.3875 79.1414 44.3875C80.8567 44.3875 82.4122 45.0121 83.0086 46.5645C83.1377 46.9041 82.9164 47.2618 82.6028 47.3892C82.3016 47.5104 81.8282 47.4195 81.6929 47.1405C81.1272 46.0066 80.2603 45.6367 79.0799 45.6367C77.8195 45.6367 76.5652 46.0854 76.5652 47.5286C76.5652 50.2574 83.7526 48.3351 83.7526 52.6951C83.7526 55.0539 81.4039 55.9999 79.3627 55.9999" fill="black"/>
<path d="M92.6779 45.8975H89.5607V55.5755C89.5607 55.6846 89.5115 55.7332 89.407 55.7332H88.2265C88.1343 55.7332 88.0667 55.6846 88.0667 55.5755V45.8975H84.9495C84.5868 45.8975 84.3224 45.5883 84.3224 45.279C84.3224 44.9697 84.5868 44.6605 84.9495 44.6605H92.6717C93.0345 44.6605 93.305 44.9697 93.305 45.279C93.305 45.5883 93.0345 45.8975 92.6717 45.8975" fill="black"/>
<path d="M99.4908 43.9267H99.2572C98.8637 43.9267 98.6301 43.6478 98.6301 43.3082V42.9323C98.6301 42.5927 98.8699 42.3137 99.2572 42.3137H99.4908C99.8843 42.3137 100.118 42.5927 100.118 42.9323V43.3082C100.118 43.6478 99.8782 43.9267 99.4908 43.9267ZM98.1567 45.9885H98.1259L96.2261 51.1549H100.032L98.1628 45.9885H98.1567ZM97.0069 43.9267H96.7733C96.3798 43.9267 96.14 43.6478 96.14 43.3082V42.9323C96.14 42.5927 96.3798 42.3137 96.7733 42.3137H97.0069C97.4004 42.3137 97.6341 42.5927 97.6341 42.9323V43.3082C97.6341 43.6478 97.4004 43.9267 97.0069 43.9267ZM103.217 55.7331H101.876C101.772 55.7331 101.686 55.6725 101.655 55.5755L100.493 52.3919H95.7404L94.5476 55.5755C94.5169 55.6664 94.4185 55.7331 94.3263 55.7331H93.0966C92.986 55.7331 92.9737 55.6725 93.0044 55.5755L97.093 45.2729C97.2529 44.903 97.5049 44.6544 97.9599 44.6544H98.3534C98.7899 44.6544 99.0789 44.8727 99.2326 45.2729L103.303 55.5755C103.334 55.6664 103.303 55.7331 103.211 55.7331" fill="black"/>
<path d="M108.788 45.8978H106.267V54.4904H108.751C109.778 54.4904 112.526 54.2114 112.526 50.1304C112.526 47.4926 111.53 45.8918 108.782 45.8918M108.634 55.7335H104.939C104.841 55.7335 104.779 55.685 104.779 55.5758V45.2733C104.779 44.964 105.05 44.6547 105.406 44.6547H108.634C112.096 44.6547 114.032 46.3587 114.032 49.9303C114.032 53.502 112.379 55.7335 108.634 55.7335Z" fill="black"/>
<path d="M123.377 55.7335H115.95C115.857 55.7335 115.79 55.685 115.79 55.5758V45.2733C115.79 44.964 116.06 44.6547 116.417 44.6547H122.854C123.217 44.6547 123.481 44.964 123.481 45.2733C123.481 45.5825 123.211 45.8918 122.854 45.8918H117.284V49.3361H122.116C122.479 49.3361 122.743 49.6453 122.743 49.9546V50.4215C122.743 50.5246 122.694 50.5731 122.584 50.5731H117.278V54.4843H123.364C123.463 54.4843 123.524 54.5328 123.524 54.6359V55.5697C123.524 55.6789 123.481 55.7274 123.364 55.7274" fill="black"/>
<path d="M130.521 45.8978H126.808V49.7605H129.925C131.327 49.7605 132.52 49.4028 132.52 47.7898C132.52 46.7043 131.923 45.8978 130.521 45.8978ZM134.247 55.7335H132.796C132.692 55.7335 132.612 55.685 132.544 55.5758L129.587 50.9976H126.802V55.5758C126.802 55.685 126.759 55.7335 126.642 55.7335H125.461C125.363 55.7335 125.302 55.685 125.302 55.5758V45.2733C125.302 44.9458 125.584 44.6547 125.929 44.6547H130.589C132.692 44.6547 134.001 45.7887 134.001 47.5533C134.001 50.1122 131.782 50.8096 131.247 50.9066L134.303 55.5758C134.352 55.6546 134.333 55.7335 134.241 55.7335" fill="black"/>
</svg>
