<?xml version="1.0" encoding="UTF-8"?>
<svg id="Lager_1" xmlns="http://www.w3.org/2000/svg" version="1.1" viewBox="0 0 841.89 595.28">
  <!-- Generator: Adobe Illustrator 29.2.1, SVG Export Plug-In . SVG Version: 2.1.0 Build 116)  -->
  <defs>
    <style>
      .st0 {
        fill: #22544e;
      }
    </style>
  </defs>
  <rect class="st0" x="345.92" y="200.23" width="53.41" height="198.37"/>
  <path class="st0" d="M490.38,398.6h-53.41v-198.37h51.81v24.6c12.04-20.56,35.74-29.84,57.03-29.84,48.99,0,71.48,35.08,71.48,78.62v124.99h-53.41v-115.72c0-22.17-10.85-39.51-36.55-39.51-23.29,0-36.95,18.14-36.95,41.12v114.1Z"/>
  <g>
    <path class="st0" d="M313.39,247.81v-47.57h-39.76v-32.34l-52.68,22.5-.34,149.74c0,38.3,24.1,61.28,62.65,61.28,15.66,0,25.3-2.82,30.12-4.84v-44.35c-2.81.81-10.04,1.61-16.47,1.61-15.26,0-23.29-5.64-23.29-22.98v-83.06h39.76Z"/>
    <polygon class="st0" points="345.93 137.12 345.93 166.67 399.8 166.67 399.8 114.26 345.93 137.12"/>
  </g>
  <g>
    <path class="st0" d="M789.52,200.23v23.39c-6.83-13.31-24.9-27.02-56.22-27.02-54.22,0-91.97,44.35-91.97,96.77,0,55.64,39.36,96.36,91.97,96.36,28.51,0,46.99-12.5,55.02-25.4v14.51c0,38.31-18.88,55.24-52.61,55.24-19.92,0-34.82-9.78-42.04-24.55l-45.15,19.15c13.99,27.87,45.65,52.57,88.79,52.57,74.3,0,103.61-49.59,103.61-104.02v-177h-51.4ZM742.54,343.77c-27.71,0-47.39-19.35-47.39-50.4s20.89-49.99,47.39-49.99,46.59,19.35,46.59,49.99-19.28,50.4-46.59,50.4"/>
    <path class="st0" d="M119.13,248.19l-35.59-7.66c-16.14-3-25.45-12.35-25.45-25.65,0-15.85,15.49-28.27,35.27-28.27,23.95,0,44.15,13.55,48.73,37l48.21-20.46c-19.65-52.5-68.37-61.51-97.45-61.51-50.6,0-90.23,34.64-90.23,78.85,0,21.45,8.29,39.05,23.88,51.93l.11-.07.16.28c10.98,8.99,25.52,15.67,43.42,19.65l33.06,7.66c24.34,5.14,29.46,17.89,29.46,27.68,0,14.08-11.22,28.28-36.29,28.28-30.78,0-44.9-18.42-48.29-36.09L0,340.3c9.65,26.55,37.03,61.07,96.92,61.07,64.44,0,93.79-41.14,93.79-79.36s-26.09-64.41-71.58-73.82"/>
  </g>
</svg>