<?xml version="1.0" encoding="UTF-8"?>
<svg xmlns="http://www.w3.org/2000/svg" xmlns:xlink="http://www.w3.org/1999/xlink" version="1.1" id="Layer_2" x="0px" y="0px" width="242px" height="64px" viewBox="0 0 242 64" xml:space="preserve">
<g>
	<path fill="#100C08" d="M81.472,29.758c-0.219,0.742-0.489,1.603-1.552,2.581c-0.963,0.878-2.548,1.874-5.586,1.874   c-4.236,0-7.172-2.21-7.172-6.378c0-4.489,3.579-6.311,7.341-6.311c1.367,0,4.958,0.32,6.54,3.176l-2.979,0.939   c-0.32-0.506-1.27-1.82-3.582-1.82c-2.699,0-4.215,1.77-4.215,4.047c0,2.6,2.06,3.983,4.32,3.983c2.583,0,3.358-1.35,3.746-2.076   L81.472,29.758z M67.162,27.834c0-4.489,3.579-6.311,7.341-6.311"></path>
	<polygon fill="#100C08" points="82.777,21.893 85.764,21.893 85.764,26.484 92.82,26.484 92.82,21.893 95.806,21.893 95.806,33.81   92.82,33.81 92.82,28.695 85.764,28.695 85.764,33.81 82.777,33.81  "></polygon>
	<path fill="#100C08" d="M102.981,21.893h3.224l5.754,11.917h-3.342l-1.18-2.604h-5.802l-1.151,2.604h-3.257L102.981,21.893z    M104.871,25.556c-0.084-0.153-0.152-0.321-0.202-0.473c-0.051-0.152-0.083-0.304-0.101-0.472   c-0.051,0.152-0.085,0.286-0.118,0.422c-0.068,0.151-0.119,0.303-0.187,0.455l-1.662,3.608h3.846L104.871,25.556z"></path>
	<polygon fill="#100C08" points="113.495,21.893 116.481,21.893 116.481,31.614 122.499,31.614 122.499,33.81 113.495,33.81  "></polygon>
	<path fill="#100C08" d="M124.297,21.893h4.303l3.104,7.291c0.322,0.777,0.438,1.097,0.608,1.772   c0.118-0.505,0.218-0.81,0.558-1.636l3.104-7.426h4.269V33.81h-2.818v-8.338c0-0.354,0.052-0.659,0.118-1.114   c-0.118,0.354-0.168,0.49-0.337,0.912l-3.561,8.54h-2.718l-3.561-8.372c-0.186-0.456-0.219-0.59-0.354-1.08   c0.05,0.507,0.066,0.608,0.101,1.063v8.389h-2.817V21.893z"></path>
	<polygon fill="#100C08" points="143.006,21.893 154.109,21.893 154.109,24.038 145.993,24.038 145.993,26.721 153.142,26.721   153.142,28.83 145.993,28.83 145.993,31.681 154.445,31.681 154.445,33.81 143.006,33.81  "></polygon>
	<path fill="#100C08" d="M173.012,30.174c0.7,1.423,2.41,1.833,4.03,1.804c0.727-0.013,3.002-0.17,2.978-1.62   c-0.015-0.861-0.846-1.05-1.489-1.157c-0.492-0.093-2.944-0.421-3.503-0.513c-1.101-0.183-3.877-0.659-3.924-3.358   c-0.01-0.59,0.148-1.2,0.443-1.695c0.968-1.62,3.155-2.08,5.043-2.113c1.739-0.031,3.074,0.2,4.318,0.853   c1.227,0.636,1.765,1.504,2.008,1.889l-2.821,0.759c-0.104-0.185-0.349-0.62-1.063-0.96c-0.8-0.375-1.831-0.424-2.404-0.414   c-1.315,0.022-2.662,0.298-2.643,1.429c0.014,0.776,0.711,0.967,1.607,1.154c0.492,0.093,2.927,0.455,3.486,0.564   c1.389,0.229,3.743,0.693,3.789,3.309c0.065,3.83-4.225,4.047-5.965,4.071c-1.957,0.026-5.006-0.252-6.596-3.245L173.012,30.174z"></path>
	<path fill="#100C08" d="M156.688,21.901h8.202c1.35,0,2.583,0.118,3.578,1.265c0.607,0.71,0.777,1.604,0.777,2.295   c0,0.912-0.306,1.991-1.148,2.634c-0.641,0.489-1.468,0.658-1.94,0.742l3.61,4.979h-3.428l-3.271-4.792h-3.392v4.792h-2.988V21.901   z M159.676,26.913h4.759c0.641,0,1.789-0.084,1.789-1.418c0-0.236-0.034-0.64-0.236-0.928c-0.219-0.287-0.508-0.573-1.687-0.573   h-4.625V26.913z"></path>
	<rect x="67.988" y="37.279" fill="#100C08" width="3.004" height="11.987"></rect>
	<path fill="#100C08" d="M73.658,37.279h2.99l5.875,6.673c0.714,0.833,0.85,1.001,1.596,1.935c-0.102-1.137-0.102-1.44-0.119-2.478   v-6.13h2.869v11.987h-2.971l-5.943-6.757c-0.628-0.732-0.883-1.035-1.546-1.886c0.085,0.917,0.085,1.121,0.102,2.037v6.605h-2.853   V37.279z"></path>
	<path fill="#100C08" d="M89.28,37.279h6.554c0.441,0.018,0.883,0.018,1.324,0.067c3.498,0.323,5.23,2.768,5.23,5.858   c0,1.377-0.339,2.735-1.172,3.838c-1.681,2.19-3.938,2.208-5.755,2.224H89.28V37.279z M92.268,39.402v7.742h3.312   c1.07-0.019,2.292-0.034,3.09-1.171c0.356-0.493,0.73-1.325,0.73-2.836c0-1.138-0.255-1.92-0.595-2.462   c-0.781-1.238-2.037-1.257-3.073-1.273H92.268z"></path>
	<path fill="#100C08" d="M103.797,37.279h2.988v7.047c0,1.069,0.221,1.969,1.359,2.513c0.967,0.458,1.833,0.424,2.716,0.39   c1.139-0.103,1.868-0.407,2.343-0.949c0.289-0.339,0.543-0.73,0.51-1.936v-7.064h2.988v6.963c-0.017,1.271-0.017,2.478-1.035,3.6   c-1.24,1.375-3.55,1.833-5.367,1.833c-0.849,0-1.699-0.084-2.53-0.289c-0.577-0.135-1.324-0.373-2.071-0.865   c-1.885-1.273-1.902-2.854-1.902-4.278V37.279z"></path>
	<path fill="#100C08" d="M120.862,45.549c0.678,1.442,2.394,1.884,4.024,1.884c0.729,0,3.022-0.118,3.022-1.579   c0-0.865-0.834-1.068-1.478-1.188c-0.493-0.101-2.955-0.475-3.515-0.577c-1.104-0.204-3.889-0.729-3.889-3.446   c0-0.595,0.169-1.204,0.475-1.698c1.002-1.612,3.21-2.039,5.111-2.039c1.749,0,3.091,0.257,4.33,0.935   c1.223,0.663,1.749,1.546,1.986,1.937l-2.853,0.713c-0.103-0.187-0.34-0.628-1.053-0.983c-0.799-0.392-1.835-0.46-2.411-0.46   c-1.324,0-2.684,0.256-2.684,1.392c0,0.781,0.697,0.985,1.597,1.188c0.491,0.104,2.938,0.511,3.498,0.628   c1.393,0.257,3.753,0.765,3.753,3.397c0,3.855-4.586,3.991-6.096,3.991c-1.97,0-5.009-0.341-6.555-3.38L120.862,45.549z"></path>
	<polygon fill="#100C08" points="131.422,37.279 143.325,37.279 143.325,39.47 138.877,39.47 138.877,49.267 135.871,49.267   135.871,39.47 131.422,39.47  "></polygon>
	<path fill="#100C08" d="M144.922,37.279h8.252c1.357,0,2.598,0.119,3.601,1.273c0.61,0.714,0.78,1.612,0.78,2.311   c0,0.914-0.307,2.002-1.155,2.647c-0.645,0.492-1.477,0.664-1.953,0.747l3.635,5.009h-3.532l-3.209-4.82h-3.412v4.82h-3.006V37.279   z M147.928,42.322h4.787c0.646,0,1.8-0.085,1.8-1.426c0-0.237-0.034-0.646-0.238-0.934c-0.22-0.289-0.508-0.578-1.697-0.578h-4.651   V42.322z"></path>
	<rect x="159.794" y="37.279" fill="#100C08" width="3.006" height="11.987"></rect>
	<polygon fill="#100C08" points="164.329,37.279 176.231,37.279 176.231,39.47 171.782,39.47 171.782,49.267 168.777,49.267   168.777,39.47 164.329,39.47  "></polygon>
	<polygon fill="#100C08" points="177.47,37.279 188.643,37.279 188.643,39.437 180.477,39.437 180.477,42.136 188.371,42.136   188.371,44.258 180.477,44.258 180.477,47.126 188.983,47.126 188.983,49.267 177.47,49.267  "></polygon>
	<polygon fill="#100C08" points="191.309,37.279 194.28,37.279 194.28,42.526 200.139,37.279 203.993,37.279 198.151,42.341   204.808,49.267 200.801,49.267 196.099,44.105 194.28,45.667 194.28,49.267 191.309,49.267  "></polygon>
	<path fill="#100C08" d="M206.132,37.279h2.988l5.875,6.673c0.714,0.833,0.85,1.001,1.598,1.935c-0.104-1.137-0.104-1.44-0.12-2.478   v-6.13h2.87v11.987h-2.972l-5.942-6.757c-0.63-0.732-0.884-1.035-1.546-1.886c0.085,0.917,0.085,1.121,0.102,2.037v6.605h-2.853   V37.279z"></path>
	<rect x="222.109" y="37.279" fill="#100C08" width="3.006" height="11.987"></rect>
	<polygon fill="#100C08" points="228.137,37.279 231.108,37.279 231.108,42.526 236.966,37.279 240.822,37.279 234.979,42.341   241.637,49.267 237.63,49.267 232.925,44.105 231.108,45.667 231.108,49.267 228.137,49.267  "></polygon>
	<path fill="#440099" d="M18.996,43.689c-4.642-1.54-8.607-4.075-10.489-8.174C5.419,28.785,8.1,20.831,14.771,17.62   c6.671-3.211,14.029-0.207,18.054,6.262l3.178,5.102l3.485-7.281L39,20.835c-6.053-10.552-17.108-14.444-27.278-9.55   C1.553,16.182-2.635,28.352,2.172,38.563c3.074,6.529,8.17,9.412,13.816,11.486L18.996,43.689z"></path>
	<path fill="#440099" d="M42.091,16.264c4.642,1.541,8.606,4.075,10.488,8.176c3.087,6.73,0.407,14.685-6.265,17.896   c-6.671,3.21-14.029,0.207-18.052-6.262l-3.179-5.103l-3.485,7.281l0.488,0.868c6.053,10.551,17.108,14.443,27.277,9.55   c10.17-4.896,14.359-17.067,9.551-27.279c-3.074-6.53-8.17-9.411-13.816-11.485L42.091,16.264z"></path>
</g>
</svg>
