<?xml version="1.0" encoding="UTF-8" standalone="no"?>
<!-- Created with Inkscape (http://www.inkscape.org/) -->

<svg
   xmlns:dc="http://purl.org/dc/elements/1.1/"
   xmlns:cc="http://creativecommons.org/ns#"
   xmlns:rdf="http://www.w3.org/1999/02/22-rdf-syntax-ns#"
   xmlns:svg="http://www.w3.org/2000/svg"
   xmlns="http://www.w3.org/2000/svg"
   xmlns:sodipodi="http://sodipodi.sourceforge.net/DTD/sodipodi-0.dtd"
   xmlns:inkscape="http://www.inkscape.org/namespaces/inkscape"
   width="152.20667"
   height="125.72747"
   viewBox="0 0 40.271346 33.265394"
   version="1.1"
   id="svg2604"
   inkscape:version="0.92.0 r15299"
   sodipodi:docname="skelleftea kraft.svg">
  <defs
     id="defs2598">
    <clipPath
       id="clipPath2337"
       clipPathUnits="userSpaceOnUse">
      <path
         inkscape:connector-curvature="0"
         id="path2335"
         d="m 55.652,74.67 h 113.405 v 93.546 H 55.652 Z" />
    </clipPath>
    <clipPath
       id="clipPath2273"
       clipPathUnits="userSpaceOnUse">
      <path
         inkscape:connector-curvature="0"
         id="path2271"
         d="M 54.567,3.543 H 199.134 V 175.987 H 54.567 Z" />
    </clipPath>
    <clipPath
       id="clipPath2261"
       clipPathUnits="userSpaceOnUse">
      <path
         inkscape:connector-curvature="0"
         id="path2259"
         d="m 55.652,74.67 h 113.405 v 93.546 H 55.652 Z" />
    </clipPath>
  </defs>
  <sodipodi:namedview
     id="base"
     pagecolor="#ffffff"
     bordercolor="#666666"
     borderopacity="1.0"
     inkscape:pageopacity="0.0"
     inkscape:pageshadow="2"
     inkscape:zoom="4.2733171"
     inkscape:cx="75.603332"
     inkscape:cy="62.363732"
     inkscape:document-units="mm"
     inkscape:current-layer="layer1"
     showgrid="false"
     fit-margin-top="0"
     fit-margin-left="0"
     fit-margin-right="0"
     fit-margin-bottom="0"
     units="px"
     inkscape:window-width="1280"
     inkscape:window-height="744"
     inkscape:window-x="-4"
     inkscape:window-y="-4"
     inkscape:window-maximized="1" />
  <metadata
     id="metadata2601">
    <rdf:RDF>
      <cc:Work
         rdf:about="">
        <dc:format>image/svg+xml</dc:format>
        <dc:type
           rdf:resource="http://purl.org/dc/dcmitype/StillImage" />
        <dc:title></dc:title>
      </cc:Work>
    </rdf:RDF>
  </metadata>
  <g
     inkscape:label="Layer 1"
     inkscape:groupmode="layer"
     id="layer1"
     transform="translate(-72.222809,-153.99095)">
    <g
       id="g2830"
       transform="translate(0.13229144,-0.13230191)">
      <g
         transform="matrix(0.35277777,0,0,-0.35277777,52.590021,213.59841)"
         id="g2255">
        <g
           clip-path="url(#clipPath2261)"
           id="g2257">
          <g
             transform="translate(60.7451,81.4099)"
             id="g2263">
            <path
               inkscape:connector-curvature="0"
               id="path2265"
               style="fill:#7a2182;fill-opacity:1;fill-rule:nonzero;stroke:none"
               d="M 0,0 C -1.892,0.485 -2.361,0.719 -2.361,1.438 V 1.47 c 0,0.531 0.485,0.953 1.407,0.953 0.859,0 1.745,-0.352 2.646,-0.943 C 1.804,1.406 1.953,1.433 2.029,1.543 L 3.011,2.968 C 3.085,3.075 3.064,3.222 2.96,3.3 1.884,4.102 0.586,4.55 -0.923,4.55 c -2.235,0 -3.83,-1.313 -3.83,-3.299 V 1.219 c 0,-2.173 1.423,-2.783 3.627,-3.345 1.83,-0.47 2.205,-0.782 2.205,-1.392 v -0.031 c 0,-0.641 -0.594,-1.032 -1.579,-1.032 -1.173,0 -2.153,0.453 -3.082,1.179 -0.104,0.082 -0.254,0.068 -0.339,-0.034 l -1.116,-1.336 c -0.085,-0.102 -0.074,-0.257 0.029,-0.342 1.283,-1.067 2.879,-1.594 4.461,-1.594 2.361,0 4.018,1.22 4.018,3.393 v 0.031 C 3.471,-1.376 2.22,-0.579 0,0" />
          </g>
        </g>
      </g>
      <g
         transform="matrix(0.35277777,0,0,-0.35277777,52.590021,213.59841)"
         id="g2267">
        <g
           clip-path="url(#clipPath2273)"
           id="g2269">
          <g
             transform="translate(70.1372,79.9399)"
             id="g2275">
            <path
               inkscape:connector-curvature="0"
               id="path2277"
               style="fill:#7a2182;fill-opacity:1;fill-rule:nonzero;stroke:none"
               d="M 0,0 2.79,2.886 C 2.94,3.041 2.83,3.299 2.615,3.299 H 0.452 C 0.383,3.299 0.318,3.27 0.272,3.22 L -2.439,0.25 v 5.839 c 0,0.135 -0.109,0.244 -0.244,0.244 h -1.889 c -0.135,0 -0.244,-0.109 -0.244,-0.244 V -4.838 c 0,-0.135 0.109,-0.244 0.244,-0.244 h 1.889 c 0.135,0 0.244,0.109 0.244,0.244 v 2.305 l 0.828,0.876 2.118,-3.312 c 0.044,-0.07 0.122,-0.113 0.205,-0.113 H 2.85 c 0.194,0 0.31,0.215 0.205,0.377 z" />
          </g>
          <g
             transform="translate(75.4852,79.7054)"
             id="g2279">
            <path
               inkscape:connector-curvature="0"
               id="path2281"
               style="fill:#7a2182;fill-opacity:1;fill-rule:nonzero;stroke:none"
               d="M 0,0 C 0.188,1.079 0.829,1.783 1.814,1.783 2.815,1.783 3.44,1.063 3.581,0 Z m 1.814,3.69 c -2.439,0 -4.144,-1.97 -4.144,-4.362 v -0.032 c 0,-2.564 1.861,-4.331 4.378,-4.331 1.415,0 2.49,0.517 3.263,1.374 0.091,0.102 0.084,0.258 -0.018,0.349 L 4.274,-2.41 C 4.184,-2.331 4.048,-2.328 3.957,-2.406 3.362,-2.915 2.814,-3.127 2.08,-3.127 c -1.064,0 -1.814,0.563 -2.049,1.642 h 5.605 c 0.128,0 0.235,0.1 0.243,0.229 0.009,0.139 0.016,0.274 0.016,0.396 0,2.377 -1.282,4.55 -4.081,4.55" />
          </g>
          <g
             transform="translate(84.6859,86.2726)"
             id="g2283">
            <path
               inkscape:connector-curvature="0"
               id="path2285"
               style="fill:#7a2182;fill-opacity:1;fill-rule:nonzero;stroke:none"
               d="m 0,0 h -1.889 c -0.135,0 -0.244,-0.109 -0.244,-0.244 v -10.927 c 0,-0.134 0.109,-0.243 0.244,-0.243 H 0 c 0.135,0 0.244,0.109 0.244,0.243 V -0.244 C 0.244,-0.109 0.135,0 0,0" />
          </g>
          <g
             transform="translate(88.4699,86.2726)"
             id="g2287">
            <path
               inkscape:connector-curvature="0"
               id="path2289"
               style="fill:#7a2182;fill-opacity:1;fill-rule:nonzero;stroke:none"
               d="m 0,0 h -1.889 c -0.135,0 -0.244,-0.109 -0.244,-0.244 v -10.927 c 0,-0.134 0.109,-0.243 0.244,-0.243 H 0 c 0.135,0 0.244,0.109 0.244,0.243 V -0.244 C 0.244,-0.109 0.135,0 0,0" />
          </g>
          <g
             transform="translate(92.2473,79.7054)"
             id="g2291">
            <path
               inkscape:connector-curvature="0"
               id="path2293"
               style="fill:#7a2182;fill-opacity:1;fill-rule:nonzero;stroke:none"
               d="m 0,0 c 0.188,1.079 0.829,1.783 1.814,1.783 1,0 1.626,-0.72 1.767,-1.783 z m 1.814,3.69 c -2.44,0 -4.144,-1.97 -4.144,-4.362 v -0.032 c 0,-2.564 1.861,-4.331 4.378,-4.331 1.415,0 2.49,0.517 3.263,1.374 0.091,0.102 0.084,0.258 -0.018,0.349 L 4.274,-2.41 C 4.184,-2.331 4.048,-2.328 3.957,-2.406 3.362,-2.915 2.813,-3.127 2.08,-3.127 c -1.064,0 -1.814,0.563 -2.049,1.642 h 5.605 c 0.128,0 0.235,0.1 0.243,0.229 0.009,0.139 0.016,0.274 0.016,0.396 0,2.377 -1.283,4.55 -4.081,4.55" />
          </g>
          <g
             transform="translate(113.211,79.7054)"
             id="g2295">
            <path
               inkscape:connector-curvature="0"
               id="path2297"
               style="fill:#7a2182;fill-opacity:1;fill-rule:nonzero;stroke:none"
               d="m 0,0 c 0.188,1.079 0.829,1.783 1.814,1.783 1,0 1.626,-0.72 1.767,-1.783 z m 1.814,3.69 c -2.439,0 -4.144,-1.97 -4.144,-4.362 v -0.032 c 0,-2.564 1.861,-4.331 4.378,-4.331 1.415,0 2.49,0.517 3.263,1.374 0.091,0.102 0.084,0.258 -0.018,0.349 L 4.274,-2.41 C 4.184,-2.331 4.048,-2.328 3.957,-2.406 3.362,-2.915 2.814,-3.127 2.08,-3.127 c -1.064,0 -1.814,0.563 -2.049,1.642 h 5.605 c 0.128,0 0.235,0.1 0.243,0.229 0.009,0.139 0.016,0.274 0.016,0.396 0,2.377 -1.282,4.55 -4.081,4.55" />
          </g>
          <g
             transform="translate(125.2119,77.8134)"
             id="g2299">
            <path
               inkscape:connector-curvature="0"
               id="path2301"
               style="fill:#7a2182;fill-opacity:1;fill-rule:nonzero;stroke:none"
               d="m 0,0 c 0,-0.86 -0.75,-1.47 -1.861,-1.47 -0.766,0 -1.297,0.376 -1.297,1.017 v 0.031 c 0,0.75 0.625,1.157 1.641,1.157 0.579,0 1.111,-0.125 1.517,-0.313 z m -1.485,5.52 c -1.315,0 -2.19,-0.228 -3.043,-0.583 -0.118,-0.049 -0.18,-0.18 -0.14,-0.302 l 0.447,-1.364 c 0.042,-0.128 0.181,-0.199 0.309,-0.155 0.668,0.232 1.268,0.371 2.083,0.371 1.188,0 1.798,-0.547 1.798,-1.532 V 1.814 c -0.594,0.203 -1.204,0.344 -2.049,0.344 -1.985,0 -3.377,-0.845 -3.377,-2.674 v -0.031 c 0,-1.658 1.298,-2.565 2.877,-2.565 1.157,0 1.955,0.423 2.533,1.064 v -0.907 h 2.055 c 0.135,0 0.244,0.109 0.244,0.244 V 1.908 C 2.252,3.034 1.97,3.956 1.345,4.581 0.751,5.176 -0.188,5.52 -1.485,5.52" />
          </g>
          <g
             transform="translate(123.077,85.9713)"
             id="g2303">
            <path
               inkscape:connector-curvature="0"
               id="path2305"
               style="fill:#7a2182;fill-opacity:1;fill-rule:nonzero;stroke:none"
               d="M 0,0 C 0,0.379 0.322,0.701 0.712,0.701 1.103,0.701 1.424,0.379 1.424,0 V -0.023 C 1.424,-0.402 1.103,-0.724 0.712,-0.724 0.322,-0.724 0,-0.402 0,-0.023 Z m 0.712,-1.841 c 1.001,0 1.892,0.829 1.892,1.814 v 0.031 c 0,0.985 -0.891,1.814 -1.892,1.814 -1,0 -1.892,-0.829 -1.892,-1.814 v -0.031 c 0,-0.985 0.892,-1.814 1.892,-1.814" />
          </g>
          <g
             transform="translate(148.8666,83.3982)"
             id="g2307">
            <path
               inkscape:connector-curvature="0"
               id="path2309"
               style="fill:#7a2182;fill-opacity:1;fill-rule:nonzero;stroke:none"
               d="m 0,0 c -1.257,-0.029 -1.977,-0.758 -2.433,-1.848 v 1.455 c 0,0.129 -0.105,0.234 -0.234,0.234 h -1.909 c -0.129,0 -0.234,-0.105 -0.234,-0.234 v -7.913 c 0,-0.129 0.105,-0.234 0.234,-0.234 h 1.909 c 0.129,0 0.234,0.105 0.234,0.234 v 2.862 c 0,2.001 0.97,2.955 2.549,2.955 0,0 0.125,-0.016 0.125,0.192 v 2.063 C 0.241,-0.103 0.131,0.003 0,0" />
          </g>
          <g
             transform="translate(154.6805,77.8134)"
             id="g2311">
            <path
               inkscape:connector-curvature="0"
               id="path2313"
               style="fill:#7a2182;fill-opacity:1;fill-rule:nonzero;stroke:none"
               d="m 0,0 c 0,-0.86 -0.751,-1.47 -1.861,-1.47 -0.766,0 -1.297,0.376 -1.297,1.017 v 0.031 c 0,0.75 0.625,1.157 1.641,1.157 0.579,0 1.111,-0.125 1.517,-0.313 z M -1.485,5.52 C -2.807,5.52 -3.684,5.29 -4.541,4.932 -4.653,4.885 -4.709,4.759 -4.671,4.644 l 0.453,-1.383 c 0.041,-0.124 0.176,-0.19 0.3,-0.147 0.671,0.234 1.272,0.373 2.089,0.373 1.188,0 1.798,-0.547 1.798,-1.532 V 1.814 c -0.594,0.203 -1.204,0.344 -2.049,0.344 -1.985,0 -3.377,-0.845 -3.377,-2.674 v -0.031 c 0,-1.658 1.298,-2.565 2.877,-2.565 1.157,0 1.955,0.423 2.533,1.064 v -0.674 c 0,-0.129 0.105,-0.233 0.234,-0.233 h 1.831 c 0.129,0 0.234,0.104 0.234,0.233 v 4.63 C 2.252,3.034 1.97,3.956 1.345,4.581 0.751,5.176 -0.188,5.52 -1.485,5.52" />
          </g>
          <g
             transform="translate(138.9847,81.1596)"
             id="g2315">
            <path
               inkscape:connector-curvature="0"
               id="path2317"
               style="fill:#7a2182;fill-opacity:1;fill-rule:nonzero;stroke:none"
               d="M 0,0 4.077,4.249 C 4.22,4.397 4.114,4.644 3.909,4.644 H 1.725 C 1.612,4.644 1.504,4.597 1.428,4.514 L -2.893,-0.141 V 4.41 c 0,0.129 -0.104,0.234 -0.233,0.234 h -1.941 c -0.129,0 -0.234,-0.105 -0.234,-0.234 V -6.068 c 0,-0.129 0.105,-0.233 0.234,-0.233 h 1.941 c 0.129,0 0.233,0.104 0.233,0.233 v 3.113 l 1.267,1.313 3.191,-4.381 c 0.127,-0.175 0.33,-0.278 0.546,-0.278 h 2.085 c 0.192,0 0.302,0.218 0.188,0.372 z" />
          </g>
          <g
             transform="translate(103.9004,86.2094)"
             id="g2319">
            <path
               inkscape:connector-curvature="0"
               id="path2321"
               style="fill:#7a2182;fill-opacity:1;fill-rule:nonzero;stroke:none"
               d="m 0,0 c -0.402,0.115 -0.871,0.188 -1.536,0.188 -1.673,0 -2.595,-0.844 -2.595,-2.689 v -0.532 h -0.773 c -0.117,0 -0.212,-0.095 -0.212,-0.212 v -1.53 c 0,-0.117 0.095,-0.212 0.212,-0.212 h 0.773 v -6.136 c 0,-0.117 0.095,-0.212 0.212,-0.212 h 1.952 c 0.117,0 0.213,0.095 0.213,0.212 v 6.136 h 1.679 c 0.117,0 0.212,0.095 0.212,0.212 v 1.514 c 0,0.117 -0.095,0.212 -0.212,0.212 h -1.711 v 0.329 c 0,0.625 0.313,0.907 0.86,0.907 0.3,0 0.557,-0.043 0.81,-0.115 0.135,-0.039 0.269,0.064 0.269,0.204 v 1.52 C 0.153,-0.11 0.091,-0.026 0,0" />
          </g>
          <g
             transform="translate(109.9486,83.2549)"
             id="g2323">
            <path
               inkscape:connector-curvature="0"
               id="path2325"
               style="fill:#7a2182;fill-opacity:1;fill-rule:nonzero;stroke:none"
               d="m 0,0 h -1.758 v 1.929 c 0,0.118 -0.095,0.213 -0.212,0.213 h -1.952 c -0.117,0 -0.212,-0.095 -0.212,-0.213 L -4.134,0 H -4.922 C -5.04,0 -5.135,-0.095 -5.135,-0.213 V -1.82 c 0,-0.118 0.095,-0.213 0.213,-0.213 h 0.788 v -3.971 c 0,-1.939 0.985,-2.518 2.439,-2.518 0.739,0 1.29,0.162 1.765,0.422 0.069,0.037 0.111,0.109 0.111,0.187 v 1.451 c 0,0.151 -0.151,0.252 -0.291,0.198 -0.269,-0.104 -0.563,-0.162 -0.881,-0.162 -0.532,0 -0.767,0.265 -0.767,0.813 v 3.58 H 0 c 0.117,0 0.212,0.095 0.212,0.213 v 1.607 C 0.212,-0.095 0.117,0 0,0" />
          </g>
          <g
             transform="translate(162.7763,86.2094)"
             id="g2327">
            <path
               inkscape:connector-curvature="0"
               id="path2329"
               style="fill:#7a2182;fill-opacity:1;fill-rule:nonzero;stroke:none"
               d="m 0,0 c -0.402,0.115 -0.871,0.188 -1.536,0.188 -1.673,0 -2.595,-0.844 -2.595,-2.689 v -0.532 h -0.773 c -0.117,0 -0.212,-0.095 -0.212,-0.212 v -1.53 c 0,-0.117 0.095,-0.212 0.212,-0.212 h 0.773 v -6.136 c 0,-0.117 0.095,-0.212 0.212,-0.212 h 1.952 c 0.117,0 0.213,0.095 0.213,0.212 v 6.136 h 1.679 c 0.117,0 0.213,0.095 0.213,0.212 v 1.514 c 0,0.117 -0.096,0.212 -0.213,0.212 h -1.711 v 0.329 c 0,0.625 0.313,0.907 0.86,0.907 0.3,0 0.557,-0.043 0.81,-0.115 0.135,-0.039 0.269,0.064 0.269,0.204 v 1.52 C 0.153,-0.11 0.091,-0.026 0,0" />
          </g>
        </g>
      </g>
      <g
         transform="matrix(0.35277777,0,0,-0.35277777,52.590021,213.59841)"
         id="g2331">
        <g
           clip-path="url(#clipPath2337)"
           id="g2333">
          <g
             transform="translate(168.8243,81.2221)"
             id="g2339">
            <path
               inkscape:connector-curvature="0"
               id="path2341"
               style="fill:#7a2182;fill-opacity:1;fill-rule:nonzero;stroke:none"
               d="M 0,0 C 0.118,0 0.213,0.095 0.213,0.213 V 1.82 C 0.213,1.938 0.118,2.033 0,2.033 h -1.757 v 1.929 c 0,0.118 -0.095,0.213 -0.213,0.213 h -1.951 c -0.118,0 -0.213,-0.095 -0.213,-0.213 V 2.033 h -0.788 c -0.117,0 -0.213,-0.095 -0.213,-0.213 V 0.213 C -5.135,0.095 -5.039,0 -4.922,0 h 0.788 v -3.971 c 0,-1.939 0.985,-2.518 2.439,-2.518 0.739,0 1.29,0.161 1.765,0.421 0.069,0.038 0.112,0.11 0.112,0.188 v 1.451 c 0,0.15 -0.151,0.252 -0.292,0.197 -0.269,-0.103 -0.562,-0.161 -0.881,-0.161 -0.532,0 -0.766,0.265 -0.766,0.812 V 0 Z" />
          </g>
          <g
             transform="translate(144.3481,96.6922)"
             id="g2343">
            <path
               inkscape:connector-curvature="0"
               id="path2345"
               style="fill:#7a2182;fill-opacity:1;fill-rule:nonzero;stroke:none"
               d="m 0,0 12.867,14.294 c 0.087,0.096 0.089,0.242 0.006,0.341 l -1.552,1.849 c -0.102,0.122 -0.288,0.125 -0.394,0.007 L -3.482,0.484 c -0.23,-0.255 -0.049,-0.662 0.294,-0.662 h 2.789 c 0.152,0 0.297,0.065 0.399,0.178 m 7.824,-0.014 8.825,9.8 c 0.087,0.096 0.09,0.243 0.006,0.343 l -1.551,1.848 c -0.102,0.121 -0.288,0.125 -0.394,0.007 L 4.149,0.257 C 3.999,0.089 4.117,-0.178 4.343,-0.178 h 3.113 c 0.141,0 0.274,0.06 0.368,0.164 m 16.351,-0.164 c 0.454,0 0.7,0.532 0.407,0.879 L 22.659,2.972 C 22.557,3.093 22.373,3.096 22.267,2.979 L 19.745,0.172 c -0.122,-0.134 -0.026,-0.35 0.156,-0.35 z m -8.522,0.156 4.776,5.308 c 0.087,0.097 0.09,0.243 0.006,0.342 L 18.884,7.477 C 18.782,7.598 18.596,7.602 18.49,7.484 L 11.986,0.258 C 11.835,0.09 11.954,-0.178 12.181,-0.178 h 3.122 c 0.133,0 0.26,0.057 0.35,0.156 M -21.35,20.414 c 0.142,-0.169 0.401,-0.174 0.549,-0.01 l 44.684,49.632 c 0.179,0.198 0.038,0.514 -0.229,0.514 h -2.73 c -0.316,0 -0.616,-0.134 -0.827,-0.368 L -22.76,22.581 c -0.121,-0.135 -0.125,-0.338 -0.008,-0.477 z M -5.689,2.382 9.09,18.797 c 0.087,0.096 0.09,0.242 0.006,0.341 L 7.545,20.987 C 7.443,21.109 7.257,21.112 7.151,20.994 L -7.65,4.557 C -7.771,4.423 -7.774,4.22 -7.658,4.082 l 1.418,-1.69 c 0.142,-0.17 0.402,-0.175 0.551,-0.01 M -9.472,6.887 5.31,23.303 C 5.397,23.4 5.4,23.546 5.316,23.645 L 3.765,25.494 C 3.663,25.616 3.477,25.619 3.371,25.501 L -11.43,9.063 c -0.121,-0.134 -0.124,-0.336 -0.008,-0.475 l 1.42,-1.692 c 0.141,-0.168 0.399,-0.173 0.546,-0.009 m -3.783,4.504 14.78,16.416 c 0.088,0.097 0.09,0.244 0.006,0.344 L -0.02,30 c -0.102,0.121 -0.286,0.124 -0.392,0.007 L -15.214,13.568 c -0.12,-0.134 -0.124,-0.337 -0.008,-0.475 l 1.42,-1.692 c 0.142,-0.169 0.399,-0.173 0.547,-0.01 m -4.316,4.502 -1.421,1.693 c -0.115,0.138 -0.112,0.339 0.008,0.473 l 14.829,16.469 c 0.092,0.102 0.253,0.099 0.341,-0.006 l 1.589,-1.894 c 0.077,-0.091 0.075,-0.226 -0.005,-0.315 l -14.794,-16.43 c -0.147,-0.163 -0.405,-0.159 -0.547,0.01 m -60.54,16.959 c 2.242,-1.55 5.019,-2.886 8.489,-4.085 2.785,-0.963 6.003,-1.843 10.433,-2.853 5.624,-1.304 8.536,-2.363 9.983,-3.49 0.032,-0.025 0.076,-0.021 0.103,0.009 l 13.273,14.74 c 0.134,0.149 0.104,0.383 -0.065,0.491 -0.895,0.572 -1.865,1.114 -2.919,1.631 -0.097,0.047 -0.214,0.025 -0.286,-0.055 L -50.339,26.758 c -0.065,-0.072 -0.183,-0.026 -0.183,0.07 v 2.73 l 9.375,10.412 c 0.119,0.132 0.072,0.343 -0.093,0.41 -1.091,0.445 -2.259,0.871 -3.515,1.281 l -5.536,-6.148 c -0.081,-0.091 -0.231,-0.033 -0.231,0.089 v 2.657 l 3.649,4.054 c -2.039,0.593 -4.285,1.154 -6.769,1.694 -9.842,2.234 -11.594,3.566 -11.594,6.195 v 0.203 c 0,2.398 2.445,3.888 6.379,3.888 5.409,0 11.317,-1.851 16.878,-5.253 0.435,-0.266 0.996,-0.186 1.337,0.193 l 10.891,12.095 c 0.33,0.367 0.278,0.94 -0.115,1.24 -8.058,6.132 -17.152,8.956 -28.492,8.956 -8.231,0 -15.203,-2.228 -20.16,-6.443 -2.395,-2.037 -4.251,-4.484 -5.515,-7.272 -1.273,-2.808 -1.918,-5.902 -1.918,-9.197 v -0.203 c 0,-6.822 2.564,-11.911 7.84,-15.557 M 15.831,70.55 h -2.827 c -0.259,0 -0.506,-0.11 -0.679,-0.302 L -27.564,25.947 -50.522,0.449 v 3.004 l 22.227,24.686 c 0.075,0.083 0.099,0.2 0.062,0.305 -0.092,0.265 -0.191,0.525 -0.295,0.783 L 8.222,70.042 C 8.399,70.238 8.259,70.55 7.996,70.55 H 5.169 C 4.91,70.55 4.663,70.44 4.49,70.248 L -29.965,31.982 -50.522,9.15 v 3.004 l 19.167,21.288 c 0.096,0.106 0.099,0.268 0.005,0.376 -0.143,0.165 -0.29,0.327 -0.44,0.488 L 0.389,70.044 C 0.564,70.239 0.426,70.55 0.163,70.55 H -2.7 c -0.237,0 -0.464,-0.101 -0.622,-0.277 l -41.29,-45.857 v 0 l -3.344,-3.713 c -0.017,-0.02 -0.024,-0.046 -0.018,-0.072 0.06,-0.261 0.084,-0.532 0.084,-0.815 v -0.199 c 0,-1.523 -1.113,-2.47 -2.047,-2.995 -1.369,-0.77 -3.319,-1.194 -5.491,-1.194 -7.314,0 -14.306,2.441 -20.806,7.256 -0.434,0.321 -1.041,0.264 -1.402,-0.138 L -88.463,10.521 c -0.312,-0.346 -0.278,-0.883 0.076,-1.187 8.38,-7.188 19.854,-11.137 32.423,-11.137 3.117,0 6.056,0.285 8.779,0.841 0.407,0.083 0.776,0.293 1.053,0.601 l 18.878,20.966 c 0.042,0.047 0.067,0.108 0.068,0.171 0.007,0.242 0.012,0.486 0.012,0.731 v 0.203 c 0,0.106 -0.003,0.21 -0.004,0.315 l 43.235,48.017 c 0.176,0.196 0.037,0.508 -0.226,0.508 M -35.147,4.341 c 3.977,3.143 6.523,7.342 7.508,12.31 0.037,0.187 -0.197,0.304 -0.325,0.162 L -42.276,0.918 c -0.174,-0.193 0.03,-0.489 0.274,-0.396 2.574,0.977 4.875,2.254 6.855,3.819" />
          </g>
        </g>
      </g>
    </g>
  </g>
</svg>
