<?xml version="1.0" encoding="utf-8"?>
<svg version="1.1" id="Layer_1" xmlns="http://www.w3.org/2000/svg" xmlns:xlink="http://www.w3.org/1999/xlink" x="0px" y="0px"
	 viewBox="0 0 116 48" style="enable-background:new 0 0 116 48;" xml:space="preserve">
<g>
	<path class="st0" d="M56.52,12.08h3.63c0.45,0,0.87,0.05,1.26,0.16c0.39,0.11,0.73,0.27,1,0.49c0.29,0.21,0.51,0.48,0.66,0.81
		c0.17,0.32,0.25,0.71,0.25,1.15c0,0.6-0.17,1.09-0.5,1.48c-0.33,0.37-0.77,0.65-1.3,0.83v0.03c0.32,0.02,0.61,0.1,0.89,0.25
		c0.28,0.14,0.51,0.32,0.71,0.56c0.21,0.23,0.37,0.49,0.49,0.8c0.12,0.31,0.18,0.64,0.18,0.99c0,0.47-0.1,0.89-0.3,1.26
		c-0.19,0.35-0.45,0.65-0.78,0.9c-0.33,0.25-0.72,0.43-1.17,0.56c-0.44,0.13-0.92,0.19-1.43,0.19h-3.59V12.08z M57.94,16.42h1.93
		c0.27,0,0.52-0.02,0.75-0.07c0.24-0.06,0.44-0.15,0.62-0.28c0.18-0.13,0.32-0.29,0.41-0.49c0.11-0.2,0.16-0.44,0.16-0.72
		c0-0.41-0.13-0.77-0.4-1.08c-0.27-0.31-0.68-0.46-1.26-0.46h-2.23V16.42z M57.94,21.3h2.08c0.22,0,0.45-0.02,0.71-0.06
		c0.27-0.05,0.51-0.14,0.74-0.27c0.23-0.14,0.42-0.32,0.58-0.55c0.16-0.23,0.24-0.53,0.24-0.9c0-0.62-0.2-1.08-0.61-1.39
		c-0.4-0.32-0.95-0.47-1.64-0.47h-2.1V21.3z M66.57,19.04c0,0.35,0.05,0.68,0.16,0.99c0.11,0.3,0.26,0.55,0.46,0.77
		c0.2,0.21,0.44,0.37,0.72,0.5c0.29,0.12,0.61,0.18,0.96,0.18c0.35,0,0.67-0.06,0.96-0.18c0.29-0.13,0.53-0.3,0.72-0.5
		c0.2-0.22,0.35-0.47,0.46-0.77c0.11-0.31,0.16-0.64,0.16-0.99s-0.05-0.68-0.16-0.97c-0.11-0.31-0.26-0.56-0.46-0.77
		c-0.2-0.22-0.44-0.38-0.72-0.5c-0.29-0.13-0.61-0.19-0.96-0.19c-0.35,0-0.67,0.06-0.96,0.19c-0.29,0.12-0.53,0.29-0.72,0.5
		c-0.2,0.21-0.35,0.46-0.46,0.77C66.62,18.36,66.57,18.68,66.57,19.04z M65.15,19.04c0-0.51,0.09-0.99,0.28-1.43
		c0.2-0.44,0.46-0.83,0.8-1.17c0.33-0.33,0.73-0.6,1.18-0.78c0.45-0.2,0.94-0.3,1.46-0.3c0.52,0,1.01,0.1,1.46,0.3
		c0.45,0.19,0.85,0.45,1.18,0.78c0.33,0.33,0.6,0.72,0.78,1.17c0.2,0.44,0.3,0.92,0.3,1.43c0,0.51-0.1,0.99-0.3,1.45
		c-0.19,0.44-0.45,0.83-0.78,1.17c-0.33,0.33-0.73,0.59-1.18,0.78c-0.45,0.19-0.94,0.28-1.46,0.28c-0.52,0-1.01-0.09-1.46-0.28
		c-0.45-0.2-0.85-0.46-1.18-0.78c-0.33-0.33-0.6-0.72-0.8-1.17C65.24,20.03,65.15,19.55,65.15,19.04z M77.98,17.3
		c-0.16-0.2-0.35-0.36-0.59-0.49c-0.23-0.14-0.51-0.21-0.84-0.21c-0.32,0-0.59,0.07-0.83,0.21c-0.23,0.13-0.34,0.32-0.34,0.58
		c0,0.21,0.06,0.37,0.19,0.5c0.14,0.13,0.3,0.23,0.47,0.31c0.19,0.08,0.38,0.14,0.59,0.18c0.21,0.04,0.38,0.07,0.53,0.1
		c0.29,0.07,0.55,0.15,0.8,0.25c0.26,0.1,0.47,0.23,0.65,0.38c0.19,0.16,0.33,0.35,0.43,0.58c0.11,0.23,0.16,0.5,0.16,0.83
		c0,0.39-0.08,0.73-0.25,1.02c-0.17,0.28-0.38,0.5-0.65,0.68c-0.27,0.18-0.57,0.31-0.92,0.38c-0.33,0.08-0.67,0.12-1.02,0.12
		c-0.58,0-1.09-0.09-1.54-0.27c-0.43-0.18-0.82-0.5-1.17-0.97l1-0.83c0.22,0.22,0.46,0.41,0.72,0.58c0.27,0.17,0.59,0.25,0.97,0.25
		c0.17,0,0.33-0.01,0.5-0.04c0.18-0.04,0.33-0.09,0.46-0.16c0.14-0.08,0.25-0.17,0.33-0.28c0.09-0.12,0.13-0.25,0.13-0.4
		c0-0.2-0.06-0.36-0.19-0.49c-0.12-0.13-0.27-0.23-0.44-0.3c-0.17-0.08-0.35-0.14-0.55-0.18c-0.19-0.05-0.35-0.09-0.5-0.12
		c-0.29-0.07-0.56-0.15-0.81-0.24c-0.26-0.09-0.48-0.21-0.68-0.35c-0.2-0.15-0.35-0.33-0.47-0.56c-0.12-0.23-0.18-0.51-0.18-0.84
		c0-0.36,0.07-0.68,0.22-0.95c0.16-0.28,0.36-0.5,0.61-0.68c0.26-0.18,0.54-0.31,0.86-0.4c0.32-0.09,0.65-0.13,0.97-0.13
		c0.47,0,0.93,0.09,1.36,0.27c0.43,0.18,0.78,0.47,1.03,0.89L77.98,17.3z M84.57,16.69h-1.91v3.18c0,0.2,0,0.39,0.01,0.59
		c0.01,0.19,0.04,0.36,0.1,0.52c0.07,0.15,0.17,0.27,0.3,0.37c0.14,0.09,0.33,0.13,0.59,0.13c0.16,0,0.32-0.01,0.49-0.04
		c0.17-0.03,0.32-0.08,0.46-0.16v1.21c-0.16,0.09-0.36,0.15-0.62,0.18c-0.25,0.04-0.44,0.06-0.58,0.06c-0.51,0-0.91-0.07-1.2-0.21
		c-0.28-0.15-0.48-0.33-0.62-0.56c-0.13-0.23-0.21-0.48-0.24-0.75c-0.02-0.29-0.03-0.57-0.03-0.86v-3.65H79.8v-1.15h1.54v-1.96h1.33
		v1.96h1.91V16.69z M86.32,16.39c0.37-0.34,0.81-0.6,1.3-0.77c0.49-0.18,0.98-0.27,1.48-0.27c0.51,0,0.95,0.06,1.31,0.19
		c0.37,0.13,0.68,0.3,0.92,0.52c0.24,0.22,0.41,0.47,0.52,0.75c0.12,0.28,0.18,0.57,0.18,0.87v3.57c0,0.25,0.01,0.47,0.01,0.68
		c0.01,0.21,0.02,0.4,0.04,0.59H90.9c-0.03-0.35-0.04-0.71-0.04-1.06h-0.03c-0.3,0.45-0.64,0.77-1.05,0.96
		c-0.4,0.19-0.87,0.28-1.4,0.28c-0.32,0-0.64-0.04-0.93-0.13c-0.3-0.09-0.56-0.22-0.78-0.4c-0.22-0.18-0.39-0.39-0.52-0.65
		c-0.13-0.27-0.19-0.57-0.19-0.92c0-0.45,0.1-0.83,0.3-1.14c0.21-0.31,0.48-0.55,0.83-0.74c0.35-0.2,0.76-0.33,1.23-0.41
		c0.47-0.09,0.97-0.13,1.51-0.13h0.97v-0.3c0-0.18-0.03-0.35-0.1-0.53c-0.07-0.18-0.17-0.33-0.31-0.47
		c-0.14-0.15-0.31-0.26-0.52-0.34c-0.21-0.09-0.45-0.13-0.74-0.13c-0.26,0-0.48,0.02-0.68,0.07c-0.19,0.05-0.36,0.11-0.52,0.19
		c-0.16,0.07-0.3,0.15-0.43,0.25c-0.13,0.1-0.25,0.19-0.37,0.28L86.32,16.39z M90.07,19.17c-0.32,0-0.64,0.02-0.97,0.06
		c-0.32,0.03-0.63,0.09-0.9,0.19c-0.27,0.1-0.49,0.24-0.66,0.41c-0.17,0.18-0.25,0.4-0.25,0.68c0,0.4,0.13,0.69,0.4,0.87
		c0.28,0.18,0.64,0.27,1.11,0.27c0.36,0,0.67-0.06,0.93-0.18c0.26-0.13,0.46-0.29,0.62-0.49c0.16-0.2,0.27-0.41,0.34-0.65
		c0.07-0.25,0.1-0.49,0.1-0.72v-0.44H90.07z M87.62,11.99c0.23,0,0.43,0.08,0.62,0.24c0.2,0.16,0.3,0.36,0.3,0.61
		c0,0.27-0.09,0.49-0.27,0.66c-0.17,0.18-0.38,0.27-0.65,0.27c-0.27,0-0.49-0.09-0.66-0.27c-0.17-0.18-0.25-0.4-0.25-0.66
		c0-0.25,0.09-0.45,0.28-0.61C87.18,12.07,87.39,11.99,87.62,11.99z M90.63,11.99c0.23,0,0.43,0.08,0.62,0.24
		c0.2,0.16,0.3,0.36,0.3,0.61c0,0.27-0.09,0.49-0.27,0.66c-0.17,0.18-0.38,0.27-0.65,0.27c-0.27,0-0.49-0.09-0.66-0.27
		c-0.17-0.18-0.25-0.4-0.25-0.66c0-0.25,0.09-0.45,0.28-0.61C90.19,12.07,90.4,11.99,90.63,11.99z M100.96,22.54h-1.33v-1H99.6
		c-0.26,0.37-0.61,0.66-1.06,0.87c-0.44,0.21-0.9,0.31-1.37,0.31c-0.54,0-1.03-0.09-1.48-0.28c-0.43-0.19-0.81-0.45-1.12-0.78
		c-0.31-0.33-0.54-0.72-0.71-1.17c-0.17-0.44-0.25-0.93-0.25-1.45c0-0.52,0.08-1,0.25-1.45c0.17-0.45,0.4-0.84,0.71-1.17
		c0.32-0.33,0.69-0.6,1.12-0.78c0.44-0.19,0.94-0.28,1.48-0.28c0.5,0,0.97,0.11,1.42,0.33c0.44,0.21,0.78,0.49,1.02,0.86h0.03v-5.17
		h1.33V22.54z M97.33,21.48c0.35,0,0.67-0.06,0.96-0.18c0.29-0.13,0.53-0.3,0.72-0.5c0.2-0.22,0.35-0.47,0.46-0.77
		c0.11-0.31,0.16-0.64,0.16-0.99s-0.05-0.68-0.16-0.97c-0.11-0.31-0.26-0.56-0.46-0.77c-0.2-0.22-0.44-0.38-0.72-0.5
		c-0.29-0.13-0.61-0.19-0.96-0.19c-0.35,0-0.67,0.06-0.96,0.19c-0.29,0.12-0.53,0.29-0.72,0.5c-0.2,0.21-0.35,0.46-0.46,0.77
		c-0.11,0.3-0.16,0.62-0.16,0.97s0.05,0.68,0.16,0.99c0.11,0.3,0.26,0.55,0.46,0.77c0.2,0.21,0.44,0.37,0.72,0.5
		C96.65,21.42,96.97,21.48,97.33,21.48z M103.98,19.53c0,0.31,0.06,0.59,0.19,0.84c0.14,0.25,0.31,0.46,0.53,0.64
		c0.22,0.18,0.47,0.32,0.75,0.41c0.28,0.1,0.58,0.15,0.89,0.15c0.41,0,0.77-0.09,1.08-0.28c0.31-0.2,0.59-0.45,0.84-0.77l1,0.77
		c-0.74,0.96-1.77,1.43-3.1,1.43c-0.55,0-1.05-0.09-1.51-0.28c-0.44-0.19-0.82-0.44-1.14-0.77c-0.31-0.33-0.54-0.72-0.71-1.17
		c-0.17-0.45-0.25-0.94-0.25-1.46c0-0.52,0.09-1,0.27-1.45c0.19-0.45,0.44-0.84,0.75-1.17c0.33-0.33,0.71-0.6,1.15-0.78
		c0.44-0.19,0.92-0.28,1.45-0.28c0.62,0,1.14,0.11,1.57,0.33c0.43,0.22,0.79,0.5,1.06,0.86c0.28,0.34,0.47,0.74,0.59,1.18
		c0.13,0.43,0.19,0.88,0.19,1.33v0.47H103.98z M108.17,18.46c-0.01-0.3-0.06-0.57-0.15-0.81c-0.08-0.25-0.2-0.46-0.37-0.64
		c-0.17-0.19-0.38-0.33-0.63-0.43c-0.25-0.11-0.54-0.16-0.87-0.16c-0.33,0-0.62,0.06-0.9,0.19c-0.27,0.12-0.49,0.28-0.68,0.47
		c-0.19,0.2-0.33,0.42-0.44,0.66c-0.1,0.24-0.15,0.47-0.15,0.71H108.17z M111.18,15.54h1.33v1.08h0.03c0.09-0.19,0.21-0.35,0.35-0.5
		c0.15-0.16,0.31-0.29,0.49-0.4c0.19-0.11,0.39-0.19,0.61-0.25c0.22-0.07,0.43-0.1,0.65-0.1c0.22,0,0.41,0.03,0.59,0.09l-0.06,1.43
		c-0.11-0.03-0.22-0.05-0.32-0.07c-0.11-0.02-0.22-0.03-0.32-0.03c-0.65,0-1.15,0.18-1.49,0.55c-0.35,0.36-0.52,0.93-0.52,1.7v3.52
		h-1.33V15.54z M56.29,31.54h1.33v7h-1.33V31.54z M55.98,29.03c0-0.27,0.09-0.49,0.28-0.68c0.2-0.2,0.43-0.3,0.69-0.3
		c0.27,0,0.49,0.1,0.68,0.3c0.2,0.19,0.3,0.41,0.3,0.68c0,0.27-0.1,0.5-0.3,0.69C57.44,29.91,57.22,30,56.95,30
		c-0.27,0-0.5-0.09-0.69-0.28C56.07,29.52,55.98,29.29,55.98,29.03z M64.18,28.08h3.63c0.45,0,0.87,0.05,1.26,0.16
		c0.39,0.11,0.73,0.27,1,0.49c0.29,0.21,0.51,0.48,0.66,0.81c0.17,0.32,0.25,0.71,0.25,1.15c0,0.6-0.17,1.09-0.5,1.48
		c-0.33,0.37-0.77,0.65-1.3,0.83v0.03c0.32,0.02,0.61,0.1,0.89,0.25c0.28,0.14,0.51,0.32,0.71,0.56c0.21,0.23,0.37,0.49,0.49,0.8
		c0.12,0.31,0.18,0.64,0.18,0.99c0,0.47-0.1,0.89-0.3,1.26c-0.19,0.35-0.45,0.65-0.78,0.9c-0.33,0.25-0.72,0.43-1.17,0.56
		c-0.44,0.13-0.92,0.19-1.43,0.19h-3.59V28.08z M65.6,32.42h1.93c0.27,0,0.52-0.02,0.75-0.07c0.24-0.06,0.44-0.15,0.62-0.28
		c0.18-0.13,0.32-0.29,0.41-0.49c0.11-0.2,0.16-0.44,0.16-0.72c0-0.41-0.13-0.77-0.4-1.08c-0.27-0.31-0.68-0.46-1.26-0.46H65.6
		V32.42z M65.6,37.3h2.08c0.22,0,0.45-0.02,0.71-0.06c0.27-0.05,0.51-0.14,0.74-0.27c0.23-0.14,0.42-0.32,0.58-0.55
		c0.16-0.23,0.24-0.53,0.24-0.9c0-0.62-0.2-1.08-0.61-1.39c-0.4-0.32-0.95-0.47-1.64-0.47h-2.1V37.3z M74.22,35.04
		c0,0.35,0.05,0.68,0.16,0.99c0.11,0.3,0.26,0.55,0.46,0.77c0.2,0.21,0.44,0.37,0.72,0.5c0.29,0.12,0.61,0.18,0.96,0.18
		s0.67-0.06,0.96-0.18c0.29-0.13,0.53-0.3,0.72-0.5c0.2-0.22,0.35-0.47,0.46-0.77c0.11-0.31,0.16-0.64,0.16-0.99
		c0-0.35-0.05-0.68-0.16-0.97c-0.11-0.31-0.26-0.56-0.46-0.77c-0.2-0.22-0.44-0.38-0.72-0.5c-0.29-0.13-0.61-0.19-0.96-0.19
		s-0.67,0.06-0.96,0.19c-0.29,0.12-0.53,0.29-0.72,0.5c-0.2,0.21-0.35,0.46-0.46,0.77C74.28,34.36,74.22,34.68,74.22,35.04z
		 M72.81,35.04c0-0.51,0.09-0.99,0.28-1.43c0.2-0.44,0.46-0.83,0.8-1.17c0.33-0.33,0.73-0.6,1.18-0.78c0.45-0.2,0.94-0.3,1.46-0.3
		c0.52,0,1.01,0.1,1.46,0.3c0.45,0.19,0.85,0.45,1.18,0.78c0.33,0.33,0.6,0.72,0.78,1.17c0.2,0.44,0.3,0.92,0.3,1.43
		c0,0.51-0.1,0.99-0.3,1.45c-0.19,0.44-0.45,0.83-0.78,1.17c-0.33,0.33-0.73,0.59-1.18,0.78c-0.45,0.19-0.94,0.28-1.46,0.28
		c-0.52,0-1.01-0.09-1.46-0.28c-0.45-0.2-0.85-0.46-1.18-0.78c-0.33-0.33-0.6-0.72-0.8-1.17C72.9,36.03,72.81,35.55,72.81,35.04z
		 M81.92,31.54h1.33v1.08h0.03c0.09-0.19,0.21-0.35,0.35-0.5c0.15-0.16,0.31-0.29,0.49-0.4c0.19-0.11,0.39-0.19,0.61-0.25
		c0.22-0.07,0.43-0.1,0.65-0.1c0.22,0,0.41,0.03,0.59,0.09l-0.06,1.43c-0.11-0.03-0.22-0.05-0.33-0.07
		c-0.11-0.02-0.22-0.03-0.32-0.03c-0.65,0-1.15,0.18-1.49,0.55c-0.34,0.36-0.52,0.93-0.52,1.7v3.52h-1.33V31.54z M87.41,32.39
		c0.37-0.34,0.81-0.6,1.3-0.77c0.49-0.18,0.98-0.27,1.48-0.27c0.51,0,0.95,0.06,1.31,0.19c0.37,0.13,0.68,0.3,0.92,0.52
		c0.24,0.22,0.41,0.47,0.52,0.75c0.12,0.28,0.18,0.57,0.18,0.87v3.57c0,0.25,0,0.47,0.01,0.68c0.01,0.21,0.02,0.4,0.04,0.59h-1.18
		c-0.03-0.35-0.04-0.71-0.04-1.06h-0.03c-0.3,0.45-0.64,0.77-1.05,0.96c-0.4,0.19-0.87,0.28-1.4,0.28c-0.32,0-0.64-0.04-0.93-0.13
		c-0.3-0.09-0.56-0.22-0.78-0.4c-0.22-0.18-0.39-0.39-0.52-0.65c-0.13-0.27-0.19-0.57-0.19-0.92c0-0.45,0.1-0.83,0.3-1.14
		c0.21-0.31,0.48-0.55,0.83-0.74c0.35-0.2,0.76-0.33,1.23-0.41c0.47-0.09,0.97-0.13,1.51-0.13h0.97v-0.3c0-0.18-0.03-0.35-0.1-0.53
		c-0.07-0.18-0.17-0.33-0.31-0.47c-0.14-0.15-0.31-0.26-0.52-0.34c-0.21-0.09-0.45-0.13-0.74-0.13c-0.26,0-0.48,0.02-0.68,0.07
		c-0.19,0.05-0.36,0.11-0.52,0.19c-0.16,0.07-0.3,0.15-0.43,0.25c-0.13,0.1-0.25,0.19-0.37,0.28L87.41,32.39z M91.16,35.17
		c-0.32,0-0.64,0.02-0.97,0.06c-0.32,0.03-0.63,0.09-0.9,0.19c-0.27,0.1-0.49,0.24-0.66,0.41c-0.17,0.18-0.25,0.4-0.25,0.68
		c0,0.4,0.13,0.69,0.4,0.87c0.28,0.18,0.65,0.27,1.11,0.27c0.36,0,0.67-0.06,0.93-0.18c0.26-0.13,0.46-0.29,0.62-0.49
		c0.16-0.2,0.27-0.41,0.34-0.65c0.07-0.25,0.1-0.49,0.1-0.72v-0.44H91.16z M88.71,28.92c0-0.21,0.04-0.4,0.12-0.58
		c0.09-0.18,0.2-0.33,0.34-0.46c0.14-0.14,0.3-0.24,0.47-0.31c0.19-0.08,0.38-0.12,0.58-0.12c0.21,0,0.4,0.04,0.58,0.12
		c0.19,0.07,0.35,0.17,0.49,0.31c0.14,0.13,0.25,0.28,0.32,0.46c0.08,0.17,0.12,0.35,0.12,0.56c0,0.21-0.04,0.4-0.12,0.58
		c-0.08,0.18-0.19,0.33-0.32,0.47c-0.14,0.13-0.3,0.23-0.49,0.31c-0.18,0.07-0.37,0.1-0.58,0.1c-0.2,0-0.39-0.03-0.58-0.1
		c-0.18-0.08-0.33-0.18-0.47-0.31c-0.14-0.14-0.25-0.29-0.34-0.46C88.75,29.32,88.71,29.13,88.71,28.92z M91.11,28.92
		c0-0.25-0.09-0.45-0.27-0.61c-0.18-0.16-0.38-0.24-0.62-0.24s-0.44,0.08-0.62,0.24c-0.18,0.16-0.27,0.36-0.27,0.61
		c0,0.24,0.09,0.43,0.27,0.59c0.19,0.16,0.39,0.24,0.62,0.24s0.43-0.08,0.61-0.24C91.01,29.36,91.11,29.16,91.11,28.92z M98.76,33.3
		c-0.16-0.2-0.35-0.36-0.59-0.49c-0.23-0.14-0.51-0.21-0.84-0.21c-0.32,0-0.59,0.07-0.83,0.21c-0.23,0.13-0.34,0.32-0.34,0.58
		c0,0.21,0.06,0.37,0.19,0.5c0.14,0.13,0.3,0.23,0.47,0.31c0.19,0.08,0.38,0.14,0.59,0.18c0.21,0.04,0.38,0.07,0.53,0.1
		c0.29,0.07,0.55,0.15,0.8,0.25c0.26,0.1,0.47,0.23,0.65,0.38c0.19,0.16,0.33,0.35,0.43,0.58c0.11,0.23,0.16,0.5,0.16,0.83
		c0,0.39-0.08,0.73-0.25,1.02c-0.17,0.28-0.38,0.5-0.65,0.68c-0.27,0.18-0.57,0.31-0.92,0.38c-0.33,0.08-0.67,0.12-1.02,0.12
		c-0.58,0-1.09-0.09-1.54-0.27c-0.43-0.18-0.82-0.5-1.17-0.97l1-0.83c0.22,0.22,0.46,0.41,0.72,0.58s0.59,0.25,0.97,0.25
		c0.17,0,0.33-0.01,0.5-0.04c0.18-0.04,0.33-0.09,0.46-0.16c0.14-0.08,0.25-0.17,0.32-0.28c0.09-0.12,0.13-0.25,0.13-0.4
		c0-0.2-0.06-0.36-0.19-0.49c-0.12-0.13-0.27-0.23-0.44-0.3c-0.17-0.08-0.35-0.14-0.55-0.18c-0.19-0.05-0.35-0.09-0.5-0.12
		c-0.29-0.07-0.56-0.15-0.81-0.24c-0.26-0.09-0.48-0.21-0.68-0.35c-0.2-0.15-0.35-0.33-0.47-0.56c-0.12-0.23-0.18-0.51-0.18-0.84
		c0-0.36,0.07-0.68,0.22-0.95c0.16-0.28,0.36-0.5,0.61-0.68c0.26-0.18,0.54-0.31,0.86-0.4c0.32-0.09,0.65-0.13,0.97-0.13
		c0.47,0,0.93,0.09,1.36,0.27c0.43,0.18,0.78,0.47,1.03,0.89L98.76,33.3z"/>
	<path class="st0" d="M0.77,27.62h20.79V47.5H2.58c-1,0-1.81-0.81-1.81-1.81V27.62z"/>
	<path class="st0" d="M0.77,8.63L11.16,0.5l10.39,8.13V24H0.77V8.63z"/>
	<path class="st0" d="M25.17,27.62h20.79v12.65c0,3.99-3.24,7.23-7.23,7.23H25.17V27.62z"/>
	<path class="st0" d="M25.17,4.12h13.56c3.99,0,7.23,3.24,7.23,7.23V24H25.17V4.12z"/>
</g>
</svg>
