<svg width="52" height="48" viewBox="0 0 52 48" fill="none" xmlns="http://www.w3.org/2000/svg"><path d="M0 12.713a52.607 52.607 0 0 0 10.232 20.424 52.715 52.715 0 0 0 17.932 14.176L51.074 0 0 12.713z" fill="#fff"/><path d="M23.337 17.751h-2.428v4.267h2.487c1.532 0 2.428-.907 2.428-2.098v-.041c0-1.417-.955-2.128-2.487-2.128z" fill="#0091F0"/><path d="M0 12.713a52.161 52.161 0 0 0 4.75 12.22l4.244-9.595h2.476l5.45 12.263h-2.797l-.944-1.914H7.213L6.275 27.6a52.805 52.805 0 0 0 21.877 19.712L51.062 0 0 12.713zm28.538 7.142c0 2.999-2.328 4.534-5.242 4.534H20.92v3.188h-2.695V15.338h5.343c3.093 0 4.963 1.832 4.963 4.475l.006.042zm1.828 7.74l4.898-9.856h-5.836V15.42h9.873l-5.895 12.174h-3.04z" fill="#0091F0"/><path d="M8.258 23.316h3.889l-1.942-4.76-1.947 4.76z" fill="#0091F0"/></svg>