<svg version="1.2" xmlns="http://www.w3.org/2000/svg" viewBox="0 0 1551 397" width="1551" height="397"><style>.a{fill:#2e2d2c}.b{fill:#d30535}</style><path class="a" d="m1477.1 200.1c-61.8 0-106.1-35-106.1-82.6 0-44.9 43.2-84.3 108.9-84.3q8.1 0 16.1 0.8 8.1 0.8 16 2.5 7.9 1.7 15.6 4.1 7.7 2.5 15.1 5.8v-32.8q-7.6-2.2-15.4-3.9-7.8-1.7-15.7-2.8-7.9-1.1-15.8-1.6-8-0.5-15.9-0.4c-92 0-152.1 51.3-152.1 115.3 0 64 53.1 111 142.2 111q10.3 0.1 20.6-0.8 10.2-0.9 20.4-2.9 10.1-1.9 20-4.8 9.9-2.9 19.4-6.8l-11.7-26.7q-7.4 2.6-14.9 4.6-7.6 2.1-15.3 3.4-7.7 1.4-15.5 2.1-7.8 0.7-15.6 0.8"/><path class="a" d="m724.5 7.6v222h-38.8v-222z"/><path class="a" d="m1013.3 39.3h-100.1v190.4h-39.8v-190.4h-100.2c-0.1-4.1 0.7-8.3 2.3-12.1 1.6-3.9 3.9-7.3 6.9-10.2 2.9-3 6.4-5.2 10.3-6.8 3.9-1.5 8-2.2 12.2-2h208.4z"/><path class="a" d="m514.4 229.7h-31.7l-113.2-222.1h43.2l87.5 171.1c6.6-11.4 78.8-144.4 82.6-150.8 15.9-28 53.6-19.9 53.6-19.9z"/><path class="a" d="m1087.1 70c11.5-22.5 41.1-39.8 76.6-39.8 48.2 0 83.7 31.7 83.7 62.8h-106.7c-4 0.1-8 0.9-11.7 2.4-3.7 1.5-7.1 3.8-9.9 6.6-2.9 2.9-5.1 6.3-6.7 10-1.5 3.7-2.3 7.7-2.3 11.7h177.8v-8.3c0-68.8-42.7-114.8-124.2-114.8-76.1 0-127.4 48.2-127.4 112.1 0 64 47.5 120.3 146 120.3q12.6 0.1 25.1-1.3 12.5-1.4 24.7-4.3 12.2-2.9 24-7.3 11.8-4.3 23-10.1l-13.1-26.2q-8.7 4-17.8 7.1-9 3.1-18.3 5.3-9.3 2.2-18.8 3.5-9.5 1.2-19 1.6c-54.2 0.6-94.7-24.1-106.1-56.3-2.7-5.9-4.8-12.1-6.1-18.5-1.3-6.4-2-12.9-1.8-19.4 0.1-6.5 1-13 2.6-19.3 1.6-6.3 3.9-12.5 6.9-18.2"/><path class="b" d="m187.9 33.2q3.3-3.3 6.7-6.5 3.4-3.3 6.9-6.4 3.5-3.1 7-6.2 3.6-3 7.3-5.9h-74.4c-98.4 3.7-78.7 85.8-74.3 101.1 0 1.1 0 1.6 1 2.7 3.8 12.1 7.7 23.5 12.6 35.1 4.4 9.2 8.2 18 13.1 27.2q0.1-0.4 0.2-0.8 0-0.4 0.2-0.8 0.1-0.4 0.3-0.8 0.2-0.4 0.4-0.8 8.2-19.2 18.2-37.6 10-18.4 21.7-35.8 11.7-17.4 25-33.5 13.3-16.2 28.1-31z"/><path class="a" d="m274.4 7.1c-10 5.9-19.9 13.1-26.9 18l-9.2 7.6-1.7 1.6v-0.5l-24.6 23q-13.6 13.7-25.9 28.7-12.3 14.9-23.1 30.9-10.8 16.1-20.1 33-9.2 17-16.8 34.8c-3.8 9.3-7.6 18.6-10 27.9-2.2 6-4.4 12.1-6 18h78.7c86 0 86-85.2 86-85.2z"/><path class="a" d="m78.5 217q-4.2-6.8-8-13.8-3.9-6.9-7.6-14-3.6-7.2-6.9-14.4-3.4-7.2-6.5-14.6-3.8-9-7.3-18.2-3.5-9.2-6.5-18.5-3-9.4-5.6-18.9-2.5-9.4-4.6-19c-45.4 99.5-29.1 144.8 40.5 144.8h20.8l-8.3-13.1"/><path class="b" d="m734.2 394.7h-7.7l-12.6-62.9h7.6l9.9 53.3h0.6l27.6-53.3h8.2z"/><path fill-rule="evenodd" class="b" d="m766.6 364.2c0.4-4.2 1.5-8.4 3.3-12.2 1.8-3.8 4.2-7.3 7.2-10.3 3-3 6.5-5.4 10.4-7.1 3.8-1.8 8-2.8 12.2-3.2 13.6 0 24.9 10 21.5 30.9l-0.6 3.7h-47c-2.4 15.7 4 23.8 17.4 23.8q2.8 0.1 5.5-0.5 2.8-0.6 5.2-1.9 2.5-1.3 4.6-3.2 2-1.9 3.5-4.3l6.6 2.2c-1.3 2.3-3 4.4-4.9 6.2-1.9 1.9-4 3.5-6.3 4.8-2.3 1.3-4.8 2.3-7.4 2.9-2.6 0.7-5.2 1-7.9 0.9-17.3-0.8-26.4-14.1-23.3-32.7zm47.6-4.7c2-12.1-4.2-21.4-15.5-21.4-2.9 0.3-5.7 1-8.3 2.2-2.6 1.1-5.1 2.7-7.2 4.6-2.1 1.9-4 4.1-5.4 6.6-1.5 2.5-2.5 5.2-3.1 8z"/><path class="b" d="m838.6 331.8h7.1l-1.7 10h0.5q1.5-2.5 3.6-4.5 2.1-2 4.6-3.4 2.5-1.4 5.3-2.1 2.8-0.7 5.6-0.7h3.8l-1.2 7.5q-0.5 0-1.1-0.1-0.5 0-1.1 0-0.6 0-1.1 0-0.6 0.1-1.1 0.1c-2.4 0-4.7 0.3-6.9 1.1-2.2 0.7-4.2 1.9-6 3.3-1.8 1.5-3.4 3.3-4.6 5.3-1.2 2-2 4.1-2.4 6.4l-6.8 40.6h-7.3z"/><path class="b" d="m902 338.1h-13.5l-6.6 39.8c-1.3 8 2.8 10 7.8 10q0.6 0 1.1-0.1 0.6 0 1.1-0.1 0.6-0.1 1.1-0.2 0.6-0.1 1.1-0.2v6.6q-0.8 0.3-1.7 0.5-0.8 0.2-1.6 0.3-0.9 0.2-1.8 0.3-0.8 0-1.7 0c-2 0.2-4-0.1-5.9-0.9-1.9-0.7-3.6-1.9-4.9-3.5-1.3-1.5-2.2-3.3-2.7-5.3-0.5-2-0.5-4 0-6l7-41.9h-8.7l1-6.3h9l2.4-15.1h7.5l-2.5 15.1h13.3z"/><path class="b" d="m916.1 331.8h7.3l-10.4 62.9h-7.4zm0.9-16.3q0.1-1.1 0.6-2 0.4-1 1.2-1.7 0.8-0.7 1.8-1.1 0.9-0.4 2-0.4 1.1 0 2.1 0.4 1 0.4 1.7 1.2 0.8 0.7 1.2 1.7 0.4 1 0.4 2.1c0 1.5-0.6 2.8-1.6 3.9-1.1 1-2.4 1.6-3.9 1.6-1.5 0-2.8-0.6-3.9-1.6-1-1.1-1.6-2.4-1.6-3.9z"/><path class="b" d="m933.1 363.6c0.3-4.2 1.4-8.4 3.2-12.2 1.8-3.8 4.3-7.3 7.3-10.3 3-3 6.5-5.4 10.4-7.1 3.9-1.7 8-2.8 12.2-3.1 2.7-0.2 5.5 0.1 8.1 1 2.5 0.9 4.9 2.3 6.9 4.2 1.9 1.9 3.5 4.2 4.5 6.7 1 2.6 1.5 5.3 1.3 8h-7.3c-0.1-1.8-0.5-3.5-1.2-5.2-0.8-1.6-1.9-3.1-3.2-4.3-1.4-1.2-2.9-2.1-4.7-2.7-1.7-0.6-3.5-0.8-5.3-0.6-3.2 0.3-6.4 1.2-9.3 2.6-3 1.4-5.6 3.3-7.9 5.6-2.3 2.3-4.1 5.1-5.5 8.1-1.3 2.9-2 6.1-2.2 9.4-2.6 15.3 3.7 26 16.1 26 2 0.1 4-0.2 6-0.8 1.9-0.6 3.8-1.5 5.5-2.6 1.7-1.2 3.1-2.6 4.4-4.2 1.3-1.6 2.3-3.4 3-5.3h7.3c-0.9 2.9-2.2 5.6-4 8.1-1.7 2.4-3.9 4.6-6.3 6.4-2.5 1.7-5.2 3.1-8 4-2.9 1-5.9 1.4-8.9 1.4-17-0.6-25.6-14.4-22.4-33.1z"/><path fill-rule="evenodd" class="b" d="m993.1 377.2c2.2-12.5 12.7-16.5 27.2-18.2 10.8-1.4 16.8-1.5 17.6-6.2v-1.5c1.3-8.5-2.6-13.8-12.2-13.8q-2.8-0.1-5.6 0.5-2.7 0.7-5.2 2-2.5 1.3-4.6 3.2-2.1 1.9-3.7 4.3l-6.6-2.5c1.4-2.2 3.1-4.3 5-6.1 1.9-1.7 4-3.3 6.3-4.5 2.3-1.2 4.7-2.2 7.3-2.8 2.5-0.6 5.1-0.8 7.7-0.8 10 0 21.6 4.2 18.8 21.1l-7.2 42.7h-6.6l1.7-9.9h-0.5q-1.7 2.6-4.1 4.8-2.3 2.1-5.1 3.6-2.8 1.5-5.9 2.3-3 0.7-6.2 0.7c-2.6 0.4-5.2 0.2-7.6-0.6-2.5-0.8-4.7-2.2-6.5-4-1.8-1.9-3.1-4.2-3.8-6.7-0.7-2.4-0.8-5.1-0.2-7.6zm41.8-6.6l1.5-9.1q-2.1 0.8-4.2 1.5-2 0.7-4.2 1.2-2.1 0.5-4.3 0.8-2.2 0.3-4.4 0.4c-10.8 1.3-17.6 4.4-18.9 12.1-1.3 7.7 3.9 12 12.2 12 2.6 0 5.3-0.4 7.8-1.4 2.4-0.9 4.7-2.2 6.8-3.9 2-1.8 3.7-3.8 5-6.1 1.3-2.3 2.2-4.8 2.7-7.5z"/><path class="b" d="m1063.4 394.7h-7.2l13.9-83.9h7.2z"/><path class="b" d="m1153 347.4c-0.3-1.5-0.7-3-1.5-4.3-0.8-1.3-1.8-2.4-3-3.4-1.2-0.9-2.5-1.6-4-2-1.5-0.4-3-0.5-4.5-0.3-1.8-0.2-3.6-0.1-5.3 0.4-1.7 0.4-3.4 1.2-4.9 2.2-1.5 1-2.8 2.2-3.8 3.7-1.1 1.4-1.9 3-2.4 4.8-0.9 5.3 2.2 8.5 10 9.9l9.1 2.4q15.2 3.9 13.1 16.7c-0.7 2.8-2 5.5-3.6 7.9-1.7 2.3-3.8 4.4-6.2 6-2.4 1.7-5.1 2.9-7.9 3.7-2.8 0.7-5.7 0.9-8.6 0.6-12.5 0-19.9-5.8-19.9-16.3l7.3-1.6c0 7.4 5.2 11.3 13.8 11.3 1.9 0.3 3.8 0.2 5.7-0.2 1.9-0.5 3.7-1.2 5.3-2.3 1.6-1 3.1-2.3 4.2-3.9 1.2-1.5 2.1-3.2 2.7-5.1 0.9-5.2-1.8-8.5-8.6-9.9l-9.9-2.5c-10.6-2.7-14.8-8.5-13.5-16.9 0.7-2.7 1.9-5.2 3.5-7.5 1.6-2.3 3.5-4.3 5.8-5.8 2.2-1.6 4.8-2.8 7.4-3.5 2.7-0.8 5.5-1 8.2-0.8 2.2-0.2 4.5-0.1 6.6 0.5 2.2 0.6 4.2 1.6 5.9 2.9 1.8 1.4 3.2 3.1 4.3 5 1.1 1.9 1.8 4.1 2.1 6.3z"/><path fill-rule="evenodd" class="b" d="m1166.8 363c0.3-4.2 1.4-8.2 3.1-12 1.8-3.7 4.2-7.2 7.1-10.1 3-2.9 6.4-5.3 10.2-7 3.8-1.7 7.9-2.7 12-3 16.6 0 25.9 13.7 22.8 33.2-0.3 4.1-1.4 8.2-3.2 11.9-1.7 3.8-4.1 7.2-7.1 10.1-3 3-6.4 5.3-10.2 7-3.8 1.7-7.9 2.7-12 3-16.5 0-25.9-13.6-22.7-33.1zm48.1 0c2.2-13.8-2.9-25.4-15.7-25.4-3.3 0.3-6.5 1.3-9.5 2.7-3 1.5-5.7 3.5-8 5.9-2.3 2.4-4.2 5.2-5.5 8.2-1.3 3.1-2.1 6.4-2.3 9.7-2.3 13.8 2.9 25.2 15.7 25.2 3.3-0.3 6.5-1.2 9.5-2.6 3-1.5 5.7-3.5 8-5.9 2.3-2.4 4.2-5.1 5.5-8.2 1.4-3 2.1-6.3 2.3-9.6z"/><path class="b" d="m1262.8 338.1h-14l-9.4 56.6h-7.3l9.4-56.6h-9.9l1-6.3h10l1.5-9.2c0.4-2.2 1.2-4.4 2.3-6.3 1.1-2 2.6-3.7 4.4-5.1 1.7-1.5 3.7-2.6 5.8-3.3 2.2-0.7 4.4-1.1 6.7-1q0.9-0.1 1.9 0 1 0.1 1.9 0.2 0.9 0.2 1.9 0.5 0.9 0.3 1.7 0.7l-3 6.4q-0.6-0.2-1.2-0.4-0.6-0.1-1.2-0.3-0.6-0.1-1.3-0.1-0.6-0.1-1.2-0.1c-1.4 0-2.8 0.2-4.2 0.6-1.3 0.5-2.5 1.2-3.6 2.1-1.1 0.9-2 2-2.6 3.3-0.7 1.2-1.1 2.6-1.2 4l-1.3 7.7h14z"/><path class="b" d="m1299.9 338.1h-13.4l-6.7 39.8c-1.3 8 2.9 10 7.9 10q0.5 0 1.1-0.1 0.5 0 1.1-0.1 0.5-0.1 1.1-0.2 0.5-0.1 1-0.2l0.5 6.6q-0.8 0.3-1.6 0.5-0.9 0.2-1.7 0.3-0.9 0.2-1.7 0.3-0.9 0-1.7 0c-2 0.2-4.1-0.1-6-0.9-1.8-0.7-3.5-1.9-4.8-3.5-1.4-1.5-2.3-3.3-2.8-5.3-0.4-2-0.4-4 0-6l7-41.9h-9.9l1.1-6.3h9.6l2.5-15.1h7.5l-2.5 15.1h13.3z"/><path class="b" d="m1308.6 331.8h7.6l6.3 51.9h0.5l23.6-51.9h7.6l6.2 51.8h0.6l23.5-51.8h7.7l-29.8 62.9h-7.6l-6.4-51.5h-0.7l-23.5 51.5h-7.6z"/><path fill-rule="evenodd" class="b" d="m1392.1 377.2c2.1-12.5 12.8-16.5 27.3-18.2 10.7-1.4 16.7-1.5 17.5-6.2v-1.5c1.4-8.5-2.6-13.8-12.1-13.8q-2.9-0.1-5.6 0.5-2.8 0.7-5.3 2-2.5 1.3-4.6 3.2-2.1 1.9-3.6 4.3l-6.5-2.5c1.3-2.3 3-4.3 4.8-6.1 1.9-1.8 4-3.4 6.3-4.6 2.3-1.2 4.8-2.2 7.3-2.7 2.5-0.6 5.1-0.9 7.8-0.8 9.9 0 21.5 4.2 18.8 21.1l-7.2 42.7h-7.3l1.7-9.9h-0.5q-1.7 2.6-4 4.8-2.4 2.2-5.2 3.7-2.8 1.5-5.9 2.2-3.1 0.8-6.3 0.7c-2.5 0.3-5 0-7.3-0.8-2.4-0.9-4.5-2.3-6.2-4.2-1.7-1.8-3-4-3.6-6.5-0.7-2.4-0.8-4.9-0.3-7.4zm41.8-6.6l1.5-9.1q-2 0.8-4.1 1.5-2.1 0.7-4.2 1.2-2.1 0.5-4.3 0.8-2.1 0.3-4.3 0.4c-11 1.3-17.8 4.4-19 12.1-1.2 7.7 3.9 12 12.1 12 2.7 0 5.3-0.4 7.8-1.4 2.5-0.9 4.8-2.2 6.8-3.9 2-1.8 3.7-3.8 5.1-6.1 1.3-2.3 2.2-4.8 2.6-7.5z"/><path class="b" d="m1463.4 331.8h7l-1.7 10h0.3q1.5-2.5 3.6-4.5 2-2 4.5-3.4 2.5-1.4 5.3-2.1 2.8-0.7 5.6-0.7h3.9l-1.3 7.5q-0.5 0-1.1-0.1-0.5 0-1.1 0-0.5 0-1.1 0-0.5 0.1-1.1 0.1c-2.3 0-4.6 0.3-6.8 1.1-2.2 0.7-4.2 1.9-6 3.3-1.9 1.5-3.4 3.3-4.6 5.3-1.2 2-2 4.1-2.5 6.4l-6.6 40.6h-7.4z"/><path fill-rule="evenodd" class="b" d="m1489.6 364.2c0.4-4.2 1.5-8.4 3.3-12.2 1.7-3.8 4.2-7.3 7.2-10.3 3-3 6.5-5.4 10.4-7.1 3.8-1.8 7.9-2.8 12.2-3.2 13.6 0 24.9 10 21.4 30.9l-0.6 3.7h-46.8c-2.5 15.7 3.9 23.8 17.3 23.8q2.8 0.1 5.5-0.5 2.7-0.6 5.2-1.9 2.5-1.3 4.5-3.2 2.1-1.9 3.6-4.3l6.6 2.2c-1.4 2.3-3 4.4-4.9 6.2-1.9 1.9-4 3.5-6.3 4.8-2.4 1.3-4.8 2.3-7.4 2.9-2.6 0.7-5.2 1-7.9 0.9-17.6-0.8-26.5-14.1-23.3-32.7zm47.6-4.7c2.1-12.1-4.2-21.4-15.5-21.4-2.9 0.3-5.7 1-8.3 2.2-2.6 1.1-5.1 2.7-7.2 4.6-2.1 1.9-3.9 4.1-5.4 6.6-1.4 2.5-2.4 5.2-3 8z"/></svg>