<?xml version="1.0" encoding="UTF-8"?>
<svg width="600" height="300" version="1.1" xmlns="http://www.w3.org/2000/svg">
 <g>
  <path d="m385.48 135.49c-0.1813 4.895-7.6145 4.895-7.6145-0.1813v-3.4447l-20.487-31.002v34.447c0 5.0764-7.6145 5.0764-7.6145 0v-47.138c0-3.9886 5.0764-4.7138 7.0706-1.6317 2.1756 3.4447 21.03 31.364 21.03 31.364v-29.552c0-5.0764 7.6145-5.0764 7.6145 0zm-177.13 0c-0.18129 4.895-7.6145 4.895-7.6145-0.1813v-3.4447l-20.668-31.002v34.447c0 5.0764-7.6145 5.0764-7.6145 0v-47.138c0-3.9886 5.0764-4.7138 7.0706-1.6317 2.1756 3.4447 21.03 31.364 21.03 31.364v-29.552c0-5.0764 7.6145-5.0764 7.6145 0zm118.57 3.626h-13.597c-6.5268 0-11.603-5.2577-11.603-11.785v-30.821c0-6.5268 5.2577-11.603 11.603-11.603h13.597c6.3454 0 11.603 5.2577 11.603 11.603v30.821c0.1813 6.5268-5.0764 11.785-11.603 11.785zm3.9886-42.605c0-2.1756-1.813-3.8073-3.8073-3.8073h-13.597c-2.1756 0-3.8073 1.6317-3.8073 3.8073v30.821c0 2.1756 1.813 3.9886 3.8073 3.9886h13.597c2.1756 0 3.8073-1.813 3.8073-3.9886zm-88.655 42.605h-9.6085c-7.4332 0-13.597-6.1642-13.597-13.597 0-5.0764 7.7959-5.0764 7.7959 0 0 3.2633 2.5382 5.8015 5.8015 5.8015h9.6085c3.2634 0 5.8015-2.5382 5.8015-5.8015 0-10.697-29.008-9.7903-29.008-27.014 0-7.4333 5.9829-13.597 13.597-13.597h9.7903c7.4332 0 13.597 5.9829 13.597 13.416 0 5.0764-7.7959 5.0764-7.7959 0 0-3.0821-2.5382-5.8015-5.8015-5.8015h-9.7903c-3.0821 0-5.8015 2.5382-5.8015 5.8015 0 10.697 29.008 9.7903 29.008 27.014-0.1813 7.6145-6.1642 13.779-13.597 13.779zm176.77 0h-9.6085c-7.4332 0-13.597-6.1642-13.597-13.597 0-5.0764 7.7959-5.0764 7.7959 0 0 3.2633 2.5382 5.8015 5.8015 5.8015h9.6085c3.2633 0 5.8015-2.5382 5.8015-5.8015 0-10.697-29.008-9.7903-29.008-27.014 0-7.4333 5.9829-13.597 13.597-13.597h9.7903c7.4332 0 13.597 5.9829 13.597 13.416 0 5.0764-7.7959 5.0764-7.7959 0 0-3.0821-2.5382-5.8015-5.8015-5.8015h-9.7903c-3.0821 0-5.8015 2.5382-5.8015 5.8015 0 10.697 29.008 9.7903 29.008 27.014-0.1813 7.6145-6.1642 13.779-13.597 13.779zm-151.02 0c-5.2577 0-5.2577-7.7959 0-7.7959h6.708v-38.617h-6.708c-5.2577 0-5.2577-7.7959 0-7.7959h21.393c5.2577 0 5.2577 7.7959 0 7.7959h-6.8894v38.617h6.8894c5.2577 0 5.2577 7.7959 0 7.7959zm-160.81-23.206h-15.592v19.399c0 5.0764-7.7959 5.0764-7.7959 0v-46.593c0-2.5382 1.9942-3.8073 3.8073-3.8073h19.399c7.4332 0 13.597 5.9829 13.597 13.597v3.8073c0.1813 7.6145-5.9829 13.597-13.416 13.597zm5.8015-17.404c0-3.2633-2.7195-5.8015-5.8015-5.8015h-15.592v15.592h15.592c3.2633 0 5.8015-2.7195 5.8015-5.8015zm22.662 17.404v15.411h23.75c5.2577 0 5.2577 7.7959 0 7.7959h-27.739c-2.1756 0-3.8073-1.813-3.8073-3.8073v-46.593c0-2.1756 1.813-3.8073 3.8073-3.8073h27.557c5.2577 0 5.2577 7.7959 0 7.7959h-23.568v15.592h15.773c5.2577 0 5.2577 7.7959 0 7.7959h-15.773z" fill="#cc4202"/>
  <path d="m485.74 192.06v15.411h23.75c5.2577 0 5.2577 7.7959 0 7.7959h-27.557c-2.1756 0-3.8073-1.813-3.8073-3.8073v-46.412c0-2.1756 1.813-3.8073 3.8073-3.8073h27.557c5.2577 0 5.2577 7.7959 0 7.7959h-23.75v15.592h15.773c5.2577 0 5.2577 7.7959 0 7.7959h-15.773zm-82.309 0v15.411h23.75c5.2577 0 5.2577 7.7959 0 7.7959h-27.557c-2.1756 0-3.8073-1.813-3.8073-3.8073v-46.412c0-2.1756 1.813-3.8073 3.8073-3.8073h27.557c5.2577 0 5.2577 7.7959 0 7.7959h-23.75v15.592h15.773c5.2577 0 5.2577 7.7959 0 7.7959h-15.773zm153.74 19.761c-0.1813 5.0764-7.6145 4.895-7.6145-0.1813v-3.4447l-20.487-31.002v34.447c0 5.0764-7.6145 5.0764-7.6145 0v-47.138c0-3.9886 5.0764-4.7138 7.0706-1.6317 2.1756 3.4447 21.03 31.364 21.03 31.364v-29.552c0-5.0764 7.6145-5.0764 7.6145 0zm-348.82 0c-0.1813 5.0764-7.6145 4.895-7.6145-0.1813v-3.4447l-20.668-31.002v34.447c0 5.0764-7.6145 5.0764-7.6145 0v-47.138c0-3.9886 5.0764-4.7138 7.0706-1.6317 2.1756 3.4447 21.03 31.364 21.03 31.364v-29.552c0-5.0764 7.6145-5.0764 7.6145 0zm59.647 3.4447c-5.2577 0-5.2577-7.7959 0-7.7959h6.708v-38.617h-6.708c-5.2577 0-5.2577-7.7959 0-7.7959h21.393c5.2577 0 5.2577 7.7959 0 7.7959h-6.8894v38.617h6.8894c5.2577 0 5.2577 7.7959 0 7.7959zm190.36-46.412v42.786c0 5.2577-7.7959 5.2577-7.7959 0v-42.786h-10.697c-5.2577 0-5.2577-7.7959 0-7.7959h29.189c5.2577 0 5.2577 7.7959 0 7.7959zm-295.88 6.1642-12.328 14.504v22.299c0 5.0764-7.7959 5.0764-7.7959 0v-22.662l-12.328-14.323c-2.3568-2.7195-2.1756-3.8073-2.1756-7.7959v-2.3568c0-5.2577 7.7959-5.2577 7.7959 0v2.3568c0 0.90649 0 1.4504 0.1813 1.9942l10.516 12.691 10.516-12.691c0.18129-0.5439 0.18129-1.0878 0.18129-1.9942v-2.3568c0-5.2577 7.7959-5.2577 7.7959 0v2.3568c-0.1813 3.9886 0 5.0764-2.3568 7.9771zm81.766 40.248h-21.393c-2.1756 0-3.8073-1.813-3.8073-3.8073v-46.412c0-2.1756 1.813-3.8073 3.8073-3.8073h21.393c6.5268 0 11.603 5.0764 11.603 11.603v31.002c0 6.1642-5.2577 11.422-11.603 11.422zm3.8073-42.786c0-2.1756-1.6317-3.8073-3.8073-3.8073h-17.586v38.979h17.586c2.1756 0 3.8073-1.813 3.8073-3.9886zm129.99 39.16v-19.581h-20.85v19.581c0 5.2577-7.6145 5.2577-7.6145 0v-46.775c0-5.2577 7.6145-5.2577 7.6145 0v19.581h20.85v-19.581c0-5.2577 7.6145-5.2577 7.6145 0v46.775c0 5.0764-7.6145 5.0764-7.6145 0zm-51.126 3.626h-13.597c-6.5268 0-11.603-5.2577-11.603-11.603v-31.002c0-6.3454 5.2577-11.603 11.603-11.603h13.597c6.3454 0 11.603 5.2577 11.603 11.603 0 5.2577-7.7959 5.2577-7.7959 0 0-2.1756-1.813-3.8073-3.8073-3.8073h-13.597c-2.1756 0-3.8073 1.6317-3.8073 3.8073v30.821c0 2.1756 1.813 3.9886 3.8073 3.9886h13.597c2.1756 0 3.8073-1.813 3.8073-3.9886v-11.422h-6.1642c-5.2577 0-5.2577-7.7959 0-7.7959h10.153c2.1756 0 3.8073 1.813 3.8073 3.8073v15.411c0.1813 6.5268-5.0764 11.785-11.603 11.785zm-213.93-3.626v-33.359l-6.1642 9.0649c-0.5439 0.7252-0.5439 1.6317-0.5439 2.7195v0.7252c0 2.7195-1.9942 3.9886-3.9886 3.9886-1.9942 0-3.9886-1.2691-3.9886-3.9886v-0.7252c0-1.0878 0-1.9942-0.54389-2.7195l-6.1642-9.0649v33.359c0 5.0764-7.7959 5.0764-7.7959 0v-46.956c0-4.5324 5.4389-4.7138 7.6145-1.6317l10.877 17.223 10.877-17.223c1.9942-3.0821 7.6145-3.0821 7.6145 1.6317v46.956c0 5.0764-7.7959 5.0764-7.7959 0z" fill="#ffb819"/>
  <path d="m42.826 268.38v-236.6c0-1.2691 0.90649-2.1756 2.1756-2.1756s2.1756 0.90649 2.1756 2.1756v236.41c0 1.2691-0.90649 2.1756-2.1756 2.1756-1.2691 0.1813-2.1756-0.90648-2.1756-1.9942z" fill="#cc4202"/>
 </g>
</svg>
