<svg id="Layer_1" data-name="Layer 1" xmlns="http://www.w3.org/2000/svg" width="233.24mm" height="58.67mm" viewBox="0 0 661.16 166.3">
  <defs>
    <style>
      .cls-1 {
        fill: #ec1b2e;
      }
    </style>
  </defs>
  <title>HLF Stor logga</title>
  <g>
    <polygon class="cls-1" points="221.93 46.68 242.85 46.68 242.85 71.23 256.52 71.23 256.52 13.57 242.85 13.57 242.85 34.99 221.93 34.99 221.93 13.57 208.25 13.57 208.25 71.23 221.93 71.23 221.93 46.68"/>
    <path class="cls-1" d="M304.13,72.38c5.84,0,8.73-1.64,11.28-3.7v2.55h12.85V30.54H315.41v2.55c-2.64-2.47-6-3.7-10.87-3.7-10.88,0-20.1,9.63-20.1,21.49C284.44,64.31,294.82,72.38,304.13,72.38Zm2.63-30.8c5.6,0,9,4.2,9,9.3s-3.38,9.31-9,9.31-9-4.2-9-9.31S301.16,41.58,306.76,41.58Z"/>
    <rect class="cls-1" x="405.41" y="40.43" width="26.64" height="9.94"/>
    <polygon class="cls-1" points="221.93 88.88 208.25 88.88 208.25 146.53 249.6 146.53 249.6 134.84 221.93 134.84 221.93 88.88"/>
    <path class="cls-1" d="M281.81,126.35c0,6.76-3.45,9.15-7.74,9.15-4.12,0-7-2.23-7-7.33V105.84H254.22v26.94c0,10,6.76,14.91,15,14.91a16.39,16.39,0,0,0,12.6-5.52v4.36h12.85V105.84H281.81Z"/>
    <path class="cls-1" d="M328.18,104.69a16.4,16.4,0,0,0-12.6,5.52v-4.37H302.73v40.69h12.85v-20c0-6.76,3.79-9.64,7.74-9.64,4.12,0,7,2.23,7,6.76v22.89h12.85V118.78C343.18,109.63,336.42,104.69,328.18,104.69Z"/>
    <path class="cls-1" d="M379.23,108.4c-2.14-2-5-3.71-10.79-3.71-9.3,0-19.85,7.25-19.85,20.92,0,11.45,8.32,20.92,19.69,20.92,4.78,0,8.48-1.23,11-3.29v1c0,5.76-3.79,10.38-10.87,10.38-4.45,0-10.54-1.65-13.34-3.63l0,11.29a27.32,27.32,0,0,0,14.05,4c13.26,0,23-6.59,23-23.47v-37H379.23Zm-8.48,25.94a8.73,8.73,0,1,1,8.81-8.73A8.45,8.45,0,0,1,370.75,134.34Z"/>
    <path class="cls-1" d="M447.52,104.69c-12.44,0-22.65,9.56-22.65,21.5s10.21,21.5,22.65,21.5,22.65-9.56,22.65-21.5S460,104.69,447.52,104.69Zm0,30.81a9.31,9.31,0,1,1,9.31-9.31A9.14,9.14,0,0,1,447.52,135.5Z"/>
    <path class="cls-1" d="M501.31,104.69a16.4,16.4,0,0,0-12.6,5.52v-4.37H475.86v40.69h12.85v-20c0-6.76,3.79-9.64,7.74-9.64,4.12,0,7,2.23,7,6.76v22.89H516.3V118.78C516.3,109.63,509.55,104.69,501.31,104.69Z"/>
    <path class="cls-1" d="M553.67,108.48a17,17,0,0,0-11.45-3.79c-12,0-20.35,9.64-20.35,21.5,0,13.42,10.13,21.5,19.69,21.5,5.85,0,9.39-1.73,12.11-4v2.88h12.85V88.9H553.67Zm-9.06,27a9.31,9.31,0,1,1,9.39-9.31A9.11,9.11,0,0,1,544.61,135.5Z"/>
    <path class="cls-1" d="M593.7,104.69a21.1,21.1,0,0,0-21.34,21.17c0,12.35,9.8,21.83,22.41,21.83,5.68,0,10.21-1,16.39-4.12l.1-11.2c-4.86,4.2-12.31,4.83-15.92,4.77-5.35-.08-10.05-2.71-11-7.57h30.06v-3.71C614.37,115.48,608,104.69,593.7,104.69Zm-9,16.47a9.29,9.29,0,0,1,9-6.58,8.12,8.12,0,0,1,8.23,6.58Z"/>
    <path class="cls-1" d="M646.17,104.69a16.4,16.4,0,0,0-12.6,5.52v-4.37H620.72v40.69h12.85v-20c0-6.76,3.79-9.64,7.74-9.64,4.12,0,7,2.23,7,6.76v22.89h12.85V118.78C661.16,109.63,654.41,104.69,646.17,104.69Z"/>
    <path class="cls-1" d="M271.9,26.31a6.66,6.66,0,0,0,6.67-6.5,6.76,6.76,0,0,0-6.67-6.68,6.67,6.67,0,0,0-6.51,6.68A6.57,6.57,0,0,0,271.9,26.31Z"/>
    <path class="cls-1" d="M299,26.31a6.66,6.66,0,0,0,6.67-6.5A6.76,6.76,0,0,0,299,13.13a6.67,6.67,0,0,0-6.51,6.68A6.57,6.57,0,0,0,299,26.31Z"/>
    <path class="cls-1" d="M315.33,26.31a6.66,6.66,0,0,0,6.67-6.5,6.76,6.76,0,0,0-6.67-6.68,6.67,6.67,0,0,0-6.51,6.68A6.57,6.57,0,0,0,315.33,26.31Z"/>
    <path class="cls-1" d="M349.18,52.18c0-6.35,3.06-9.41,7.6-10.32,2.61-.52,5.79-.51,7.72.43V30.54a11.19,11.19,0,0,0-5.35-1.15,13.83,13.83,0,0,0-10,4.36V30.54H336.33V71.23h12.85Z"/>
    <path class="cls-1" d="M375,58c0,10.38,7.41,14.41,13.67,14.41,4.69,0,6.59-.49,10-2V59.21c-2.63,2-4.47,2.44-6.58,2.38s-4.28-1.4-4.28-5V40.42h10.63V30.54H387.88V16.84L375,22.77v7.77h-6.26v9.88H375Z"/>
    <path class="cls-1" d="M415.49,103.89c0-3.62,2.07-4.78,4.28-5a7.6,7.6,0,0,1,6.59,2.08V90.14c-3.46-1.57-5.35-2.06-10.05-2.06-6.26,0-13.67,4-13.67,14.41v3.35h-4.39v9.89h4.36v30.8h12.85V118h0v-2.25h6.4v-9.89h-6.4Z"/>
    <path class="cls-1" d="M137,.14C120.52-1.08,103,6,91.2,18.53l-.73.78-.73-.78A59,59,0,0,0,47.64,0c-1.24,0-2.47.05-3.7.14C24.7,1.56,9.75,13.43,2.92,32.69-5.82,57.33,5.09,85.1,35.34,115.22a296,296,0,0,0,50.74,39.85l2.65,1.58a3.42,3.42,0,0,0,3.47,0l2.66-1.58a298,298,0,0,0,50.73-39.85C175.84,85.1,186.75,57.33,178,32.69,171.19,13.43,156.23,1.56,137,.14ZM81.88,46.2H61.35V62.63H81.88v11H50V90.09H81.88v41.59l-1.58-1.13a274.9,274.9,0,0,1-32.85-27.49C30.17,85.84,11.22,60.66,19.1,38.43,24.89,22.1,36.49,17.9,45.21,17.26c.84-.06,1.69-.09,2.52-.09a41.39,41.39,0,0,1,34,19l.15.24Zm51.6,56.86a274.9,274.9,0,0,1-32.85,27.49l-1.58,1.13V90.09H131V73.67H99.05v-11h20.53V46.2H99.05V36.42l.15-.25c7.54-12.17,22.56-19.94,36.52-18.91,8.72.64,20.32,4.84,26.11,21.17C169.71,60.65,150.76,85.84,133.48,103.06Z"/>
    <path class="cls-1" d="M260.7,90.71a20.81,20.81,0,0,0,3.35.36,17.51,17.51,0,0,0,6.53-1,11.46,11.46,0,0,0,5.63-4.38,16.06,16.06,0,0,0,2.32-8.93V30.51H265.68v45.2c0,.15,0,.3,0,.45-.09,1.64-.64,3.29-2.29,3.89a7.31,7.31,0,0,1-5.19-.42l0,10.17A7.19,7.19,0,0,0,260.7,90.71Z"/>
  </g>
</svg>
