<?xml version="1.0" encoding="UTF-8" standalone="no"?>
<!-- Created with Inkscape (http://www.inkscape.org/) -->

<svg
   xmlns:dc="http://purl.org/dc/elements/1.1/"
   xmlns:cc="http://creativecommons.org/ns#"
   xmlns:rdf="http://www.w3.org/1999/02/22-rdf-syntax-ns#"
   xmlns:svg="http://www.w3.org/2000/svg"
   xmlns="http://www.w3.org/2000/svg"
   xmlns:sodipodi="http://sodipodi.sourceforge.net/DTD/sodipodi-0.dtd"
   xmlns:inkscape="http://www.inkscape.org/namespaces/inkscape"
   version="1.1"
   id="svg2"
   xml:space="preserve"
   width="803.37335"
   height="172.2"
   viewBox="0 0 803.37335 172.2"
   sodipodi:docname="Vinnova Logo.svg"
   inkscape:version="0.92.3 (2405546, 2018-03-11)"><metadata
     id="metadata8"><rdf:RDF><cc:Work
         rdf:about=""><dc:format>image/svg+xml</dc:format><dc:type
           rdf:resource="http://purl.org/dc/dcmitype/StillImage" /><dc:title></dc:title></cc:Work></rdf:RDF></metadata><defs
     id="defs6" /><sodipodi:namedview
     pagecolor="#ffffff"
     bordercolor="#666666"
     borderopacity="1"
     objecttolerance="10"
     gridtolerance="10"
     guidetolerance="10"
     inkscape:pageopacity="0"
     inkscape:pageshadow="2"
     inkscape:window-width="1342"
     inkscape:window-height="579"
     id="namedview4"
     showgrid="false"
     inkscape:zoom="0.44313145"
     inkscape:cx="401.68668"
     inkscape:cy="86.099998"
     inkscape:window-x="0"
     inkscape:window-y="27"
     inkscape:window-maximized="0"
     inkscape:current-layer="g10" /><g
     id="g10"
     inkscape:groupmode="layer"
     inkscape:label="ink_ext_XXXXXX"
     transform="matrix(1.3333333,0,0,-1.3333333,0,172.2)"><g
       id="g12"
       transform="scale(0.1)"><path
         d="m 1353.99,632.188 h -151.64 v 646.242 h 151.64 V 632.188"
         style="fill:#54b836;fill-opacity:1;fill-rule:nonzero;stroke:none"
         id="path14"
         inkscape:connector-curvature="0" /><path
         d="m 4710.18,632.188 303,646.252 H 4856.8 L 4636.44,806.973 4415.95,1278.44 h -156.36 l 303,-646.252 h 147.59"
         style="fill:#54b836;fill-opacity:1;fill-rule:nonzero;stroke:none"
         id="path16"
         inkscape:connector-curvature="0" /><path
         d="M 736.957,632.188 1060.07,1278.44 H 895.672 L 655.184,806.973 208.695,1278.44 H 0 L 594.953,632.188 h 142.004"
         style="fill:#54b836;fill-opacity:1;fill-rule:nonzero;stroke:none"
         id="path18"
         inkscape:connector-curvature="0" /><path
         d="M 5288.36,1278.45 4965.22,632.195 h 164.43 l 240.48,471.465 446.47,-471.465 h 208.72 l -594.98,646.255 h -141.98"
         style="fill:#54b836;fill-opacity:1;fill-rule:nonzero;stroke:none"
         id="path20"
         inkscape:connector-curvature="0" /><path
         d="M 1755.22,1053.82 V 632.195 h -151.61 v 646.255 h 151.61 l 382.5,-419.837 v 419.837 h 151.61 V 632.195 h -151.61 l -382.5,421.625"
         style="fill:#54b836;fill-opacity:1;fill-rule:nonzero;stroke:none"
         id="path22"
         inkscape:connector-curvature="0" /><path
         d="M 2674.93,1053.82 V 632.195 h -151.61 v 646.255 h 151.61 l 382.53,-419.837 v 419.837 h 151.61 V 632.195 h -151.61 l -382.53,421.625"
         style="fill:#54b836;fill-opacity:1;fill-rule:nonzero;stroke:none"
         id="path24"
         inkscape:connector-curvature="0" /><path
         d="m 3417.84,954.766 c 0,215.914 140.77,336.704 376.09,336.704 235.27,0 376.09,-120.79 376.09,-336.704 0,-225.27 -147.2,-349.016 -376.09,-349.016 -228.92,0 -376.09,123.746 -376.09,349.016 m 376.09,-207.571 c 134.45,0 220.91,72.7 220.91,205.012 0,126.863 -82.7,197.823 -220.91,197.823 -138.21,0 -220.94,-70.96 -220.94,-197.823 0,-132.312 86.5,-205.012 220.94,-205.012"
         style="fill:#54b836;fill-opacity:1;fill-rule:nonzero;stroke:none"
         id="path26"
         inkscape:connector-curvature="0" /><path
         d="m 678.949,302.395 c -4.484,11.757 -11.203,21.281 -20.156,28.566 -8.965,7.273 -20.305,10.918 -34.023,10.918 -12.598,0 -22.961,-2.668 -31.075,-7.981 -8.125,-5.32 -12.187,-13.855 -12.187,-25.625 0,-8.679 3.847,-15.886 11.551,-21.632 7.695,-5.743 17.363,-11.063 28.984,-15.95 11.613,-4.91 24.152,-9.882 37.59,-14.921 13.437,-5.032 25.965,-11.258 37.586,-18.692 11.621,-7.418 21.281,-16.578 28.984,-27.508 7.695,-10.91 11.543,-24.5 11.543,-40.73 0,-31.371 -9.238,-54.738 -27.715,-70.1486 -18.476,-15.4023 -44.668,-23.0898 -78.543,-23.0898 -12.324,0 -24.355,1.6797 -36.113,5.039 C 583.617,84 572.688,88.75 562.609,94.9219 c -10.078,6.1561 -18.972,13.7191 -26.668,22.6801 -7.707,8.957 -13.652,18.898 -17.851,29.82 l 47.879,21 c 7.004,-14.293 15.469,-25.774 25.41,-34.442 9.941,-8.679 23.449,-13.019 40.527,-13.019 7.285,0 14.004,0.687 20.168,2.098 6.153,1.402 11.551,3.711 16.172,6.921 4.617,3.231 8.25,7.43 10.918,12.61 2.656,5.18 3.984,11.41 3.984,18.691 0,9.797 -3.847,17.989 -11.543,24.571 -7.707,6.578 -17.363,12.519 -28.984,17.839 -11.621,5.329 -24.152,10.508 -37.59,15.547 -13.437,5.043 -25.976,11.121 -37.586,18.274 -11.621,7.136 -21.289,15.808 -28.984,26.039 -7.707,10.211 -11.555,23.16 -11.555,38.844 0,13.441 2.668,25.48 7.989,36.125 5.312,10.632 12.453,19.531 21.418,26.668 8.953,7.14 19.316,12.597 31.082,16.378 11.757,3.778 24.21,5.672 37.375,5.672 24.363,0 46.054,-5.879 65.105,-17.636 19.035,-11.766 33.027,-28.711 41.992,-50.821 l -52.918,-16.386"
         style="fill:#54b836;fill-opacity:1;fill-rule:nonzero;stroke:none"
         id="path28"
         inkscape:connector-curvature="0" /><path
         d="m 751.184,298.195 h 49.562 L 830.57,162.121 h 0.84 l 31.492,136.074 h 48.301 l 30.246,-136.074 h 0.84 l 31.074,136.074 h 49.557 L 966.645,79.8008 H 919.602 L 887.27,215.879 h -0.84 L 854.504,79.8008 H 807.465 L 751.184,298.195"
         style="fill:#54b836;fill-opacity:1;fill-rule:nonzero;stroke:none"
         id="path30"
         inkscape:connector-curvature="0" /><path
         d="m 1169.09,215.879 c -0.57,15.121 -4.57,26.883 -11.98,35.281 -7.42,8.391 -17.43,12.602 -30.03,12.602 -12.59,0 -22.61,-4.211 -30.03,-12.602 -7.42,-8.398 -11.41,-20.16 -11.97,-35.281 z m -84.01,-35.277 c 0.56,-22.692 5.18,-38.852 13.86,-48.524 8.68,-9.648 19.18,-14.476 31.5,-14.476 12.03,0 21.57,2.437 28.57,7.339 6.99,4.911 13.71,11.137 20.15,18.7 l 37.81,-23.52 c -10.08,-15.68 -22.62,-27.0312 -37.6,-34.0194 -14.98,-6.9922 -32.97,-10.5 -53.97,-10.5 -14.27,0 -27.09,2.6679 -38.42,7.9765 -11.34,5.3125 -21.01,12.8828 -28.99,22.6839 -7.98,9.797 -14.14,21.687 -18.48,35.699 -4.34,14 -6.51,29.668 -6.51,47.039 0,17.359 2.17,33.031 6.51,47.039 4.34,13.992 10.57,25.902 18.7,35.699 8.11,9.801 18.05,17.364 29.81,22.68 11.76,5.312 25.06,7.977 39.9,7.977 14.28,0 26.95,-2.723 38.01,-8.184 11.07,-5.473 20.37,-12.813 27.93,-22.051 7.56,-9.25 13.3,-19.949 17.23,-32.129 3.91,-12.179 5.88,-24.851 5.88,-38.011 v -21.418 h -131.89"
         style="fill:#54b836;fill-opacity:1;fill-rule:nonzero;stroke:none"
         id="path32"
         inkscape:connector-curvature="0" /><path
         d="m 1383.28,241.922 c -5.32,4.75 -11.27,9.027 -17.85,12.808 -6.58,3.782 -14.07,5.661 -22.47,5.661 -15.68,0 -27.71,-6.082 -36.12,-18.262 -8.4,-12.188 -12.6,-29.891 -12.6,-53.129 0,-23.238 4.2,-40.949 12.6,-53.129 8.41,-12.18 20.44,-18.269 36.12,-18.269 5.6,0 10.36,0.628 14.28,1.886 3.93,1.262 7.35,2.801 10.29,4.621 2.94,1.813 5.6,3.84 7.98,6.09 2.38,2.242 4.97,4.473 7.77,6.723 z m 52.08,-162.1212 h -44.1 l -2.52,23.5082 c -9.23,-8.9574 -18.47,-15.8207 -27.71,-20.5707 -9.25,-4.7578 -19.75,-7.1367 -31.51,-7.1367 -14.56,0 -27.3,3.0078 -38.22,9.0273 -10.92,6.0195 -20.02,14.3516 -27.29,24.9921 -7.29,10.641 -12.75,23.238 -16.39,37.801 -3.64,14.558 -5.46,30.379 -5.46,47.457 0,13.43 1.9,26.601 5.68,39.48 3.77,12.871 9.37,24.352 16.79,34.442 7.42,10.078 16.59,18.199 27.51,24.355 10.92,6.153 23.38,9.239 37.38,9.239 4.48,0 9.24,-0.625 14.28,-1.883 5.04,-1.258 10.01,-2.942 14.91,-5.039 4.9,-2.102 9.46,-4.703 13.66,-7.774 4.2,-3.09 7.56,-6.301 10.07,-9.66 h 0.84 v 105 h 52.08 V 79.8008"
         style="fill:#54b836;fill-opacity:1;fill-rule:nonzero;stroke:none"
         id="path34"
         inkscape:connector-curvature="0" /><path
         d="m 1604.21,215.879 c -0.56,15.121 -4.56,26.883 -11.97,35.281 -7.42,8.391 -17.43,12.602 -30.03,12.602 -12.6,0 -22.62,-4.211 -30.03,-12.602 -7.42,-8.398 -11.41,-20.16 -11.97,-35.281 z m -84,-35.277 c 0.56,-22.692 5.17,-38.852 13.86,-48.524 8.68,-9.648 19.18,-14.476 31.5,-14.476 12.03,0 21.56,2.437 28.56,7.339 7,4.911 13.72,11.137 20.16,18.7 l 37.8,-23.52 c -10.07,-15.68 -22.61,-27.0312 -37.59,-34.0194 -14.98,-6.9922 -32.97,-10.5 -53.97,-10.5 -14.28,0 -27.09,2.6679 -38.43,7.9765 -11.33,5.3125 -21,12.8828 -28.98,22.6839 -7.98,9.797 -14.14,21.687 -18.48,35.699 -4.34,14 -6.51,29.668 -6.51,47.039 0,17.359 2.17,33.031 6.51,47.039 4.34,13.992 10.57,25.902 18.69,35.699 8.12,9.801 18.06,17.364 29.82,22.68 11.76,5.312 25.06,7.977 39.9,7.977 14.28,0 26.94,-2.723 38.01,-8.184 11.06,-5.473 20.37,-12.813 27.93,-22.051 7.56,-9.25 13.3,-19.949 17.22,-32.129 3.92,-12.179 5.88,-24.851 5.88,-38.011 v -21.418 h -131.88"
         style="fill:#54b836;fill-opacity:1;fill-rule:nonzero;stroke:none"
         id="path36"
         inkscape:connector-curvature="0" /><path
         d="M 1682.33,79.8008 V 298.195 h 47.87 V 274.68 c 9.8,6.718 20.23,13.019 31.3,18.898 11.05,5.879 23.02,8.817 35.91,8.817 21.83,0 38.07,-6.582 48.72,-19.735 10.63,-13.16 15.95,-30.949 15.95,-53.34 V 79.8008 H 1810 V 221.762 c 0,14.84 -2.24,24.988 -6.72,30.449 -4.48,5.461 -11.2,8.18 -20.16,8.18 -11.49,0 -21.35,-2.582 -29.61,-7.762 -8.26,-5.188 -14.63,-10.289 -19.1,-15.328 V 79.8008 h -52.08"
         style="fill:#54b836;fill-opacity:1;fill-rule:nonzero;stroke:none"
         id="path38"
         inkscape:connector-curvature="0" /><path
         d="m 1905.77,323.402 h -25.2 v 59.637 h 57.96 v -59.637 l -26.89,-63.011 h -27.29 l 21.42,63.011"
         style="fill:#54b836;fill-opacity:1;fill-rule:nonzero;stroke:none"
         id="path40"
         inkscape:connector-curvature="0" /><path
         d="m 2056.97,240.66 c -5.33,5.59 -11.42,10.852 -18.28,15.75 -6.86,4.891 -14.35,7.352 -22.47,7.352 -10.07,0 -17.5,-1.961 -22.26,-5.891 -4.77,-3.91 -7.14,-9.101 -7.14,-15.531 0,-6.16 2.73,-11.141 8.19,-14.91 5.46,-3.782 12.18,-7.211 20.16,-10.289 7.98,-3.082 16.73,-6.243 26.25,-9.45 9.52,-3.222 18.27,-7.562 26.25,-13.019 7.98,-5.461 14.71,-12.461 20.17,-21 5.45,-8.551 8.18,-19.391 8.18,-32.551 0,-11.492 -2.03,-21.281 -6.09,-29.402 -4.06,-8.117 -9.66,-14.9104 -16.8,-20.3674 -7.14,-5.461 -15.61,-9.4532 -25.41,-11.9727 -9.81,-2.5195 -20.44,-3.7773 -31.92,-3.7773 -17.64,0 -33.38,3.7773 -47.25,11.3398 -13.86,7.5586 -25.7,18.4686 -35.49,32.7576 l 34.86,26.039 c 6.16,-8.398 13.37,-15.758 21.63,-22.047 8.26,-6.3 17.99,-9.453 29.19,-9.453 9.24,0 16.73,2.313 22.47,6.934 5.74,4.609 8.61,10.558 8.61,17.848 0,6.152 -2.73,11.199 -8.19,15.109 -5.45,3.93 -12.17,7.43 -20.16,10.512 -7.98,3.078 -16.73,6.359 -26.25,9.871 -9.52,3.488 -18.26,7.91 -26.25,13.226 -7.98,5.313 -14.7,12.043 -20.16,20.153 -5.46,8.129 -8.19,18.488 -8.19,31.089 0,10.079 1.96,19.11 5.88,27.09 3.92,7.981 9.25,14.629 15.96,19.95 6.72,5.308 14.42,9.375 23.1,12.175 8.68,2.793 17.78,4.2 27.3,4.2 14.56,0 28.63,-2.723 42.21,-8.184 13.58,-5.473 25.13,-13.801 34.65,-24.992 l -32.75,-28.559"
         style="fill:#54b836;fill-opacity:1;fill-rule:nonzero;stroke:none"
         id="path42"
         inkscape:connector-curvature="0" /><path
         d="M 2270.74,79.8008 V 383.039 h 57.95 V 79.8008 h -57.95"
         style="fill:#54b836;fill-opacity:1;fill-rule:nonzero;stroke:none"
         id="path44"
         inkscape:connector-curvature="0" /><path
         d="M 2384.13,79.8008 V 298.195 h 47.88 V 274.68 c 9.8,6.718 20.23,13.019 31.29,18.898 11.06,5.879 23.03,8.817 35.91,8.817 21.84,0 38.08,-6.582 48.72,-19.735 10.64,-13.16 15.96,-30.949 15.96,-53.34 V 79.8008 h -52.08 V 221.762 c 0,14.84 -2.25,24.988 -6.72,30.449 -4.48,5.461 -11.2,8.18 -20.16,8.18 -11.49,0 -21.35,-2.582 -29.61,-7.762 -8.27,-5.188 -14.63,-10.289 -19.11,-15.328 V 79.8008 h -52.08"
         style="fill:#54b836;fill-opacity:1;fill-rule:nonzero;stroke:none"
         id="path46"
         inkscape:connector-curvature="0" /><path
         d="M 2613.46,79.8008 V 298.195 h 47.87 V 274.68 c 9.81,6.718 20.24,13.019 31.3,18.898 11.05,5.879 23.03,8.817 35.91,8.817 21.83,0 38.07,-6.582 48.72,-19.735 10.63,-13.16 15.96,-30.949 15.96,-53.34 V 79.8008 h -52.08 V 221.762 c 0,14.84 -2.25,24.988 -6.72,30.449 -4.49,5.461 -11.2,8.18 -20.17,8.18 -11.48,0 -21.35,-2.582 -29.61,-7.762 -8.26,-5.188 -14.63,-10.289 -19.1,-15.328 V 79.8008 h -52.08"
         style="fill:#54b836;fill-opacity:1;fill-rule:nonzero;stroke:none"
         id="path48"
         inkscape:connector-curvature="0" /><path
         d="m 2963.73,189 c 0,24.641 -3.5,42.691 -10.49,54.18 -7.01,11.468 -17.8,17.211 -32.35,17.211 -14.56,0 -25.34,-5.743 -32.34,-17.211 -7,-11.489 -10.5,-29.539 -10.5,-54.18 0,-24.641 3.5,-42.711 10.5,-54.18 7,-11.492 17.78,-17.218 32.34,-17.218 14.55,0 25.34,5.726 32.35,17.218 6.99,11.469 10.49,29.539 10.49,54.18 z m -137.76,0 c 0,17.359 2.17,33.031 6.51,47.039 4.34,13.992 10.57,25.902 18.7,35.699 8.11,9.801 18.05,17.364 29.81,22.68 11.76,5.312 25.06,7.977 39.9,7.977 14.84,0 28.15,-2.665 39.9,-7.977 11.76,-5.316 21.69,-12.879 29.82,-22.68 8.12,-9.797 14.34,-21.707 18.69,-35.699 4.34,-14.008 6.51,-29.68 6.51,-47.039 0,-17.371 -2.17,-33.039 -6.51,-47.039 -4.35,-14.012 -10.57,-25.902 -18.69,-35.699 -8.13,-9.8011 -18.06,-17.3714 -29.82,-22.6839 -11.75,-5.3086 -25.06,-7.9765 -39.9,-7.9765 -14.84,0 -28.14,2.6679 -39.9,7.9765 -11.76,5.3125 -21.7,12.8828 -29.81,22.6839 -8.13,9.797 -14.36,21.687 -18.7,35.699 -4.34,14 -6.51,29.668 -6.51,47.039"
         style="fill:#54b836;fill-opacity:1;fill-rule:nonzero;stroke:none"
         id="path50"
         inkscape:connector-curvature="0" /><path
         d="m 3025.89,298.195 h 52.08 l 36.13,-147.836 h 0.83 l 36.96,147.836 h 52.08 L 3141.39,79.8008 h -54.6 l -60.9,218.3942"
         style="fill:#54b836;fill-opacity:1;fill-rule:nonzero;stroke:none"
         id="path52"
         inkscape:connector-curvature="0" /><path
         d="m 3336.69,184.379 c -8.69,-1.68 -17.37,-3.508 -26.04,-5.457 -8.68,-1.961 -16.53,-4.551 -23.52,-7.774 -7,-3.226 -12.67,-7.347 -17.01,-12.386 -4.35,-5.051 -6.51,-11.34 -6.51,-18.903 0,-8.129 2.37,-14.429 7.14,-18.898 4.75,-4.481 10.78,-6.723 18.06,-6.723 4.2,0 8.54,0.762 13.02,2.313 4.47,1.527 8.82,3.418 13.02,5.668 4.2,2.242 8.19,4.761 11.97,7.562 3.78,2.789 7.07,5.309 9.87,7.559 z m 5.46,-104.5782 -3.36,18.8906 c -10.64,-7.2812 -21.21,-12.9414 -31.72,-17 -10.49,-4.0625 -22.6,-6.0898 -36.32,-6.0898 -9.81,0 -18.41,1.6093 -25.83,4.8281 -7.43,3.2187 -13.59,7.5586 -18.48,13.0195 -4.9,5.461 -8.61,11.6098 -11.13,18.4808 -2.52,6.851 -3.78,14.07 -3.78,21.629 0,24.921 10.21,44.171 30.66,57.75 20.43,13.582 51.93,22.89 94.5,27.929 v 18.481 c 0,8.402 -3.01,14.832 -9.03,19.312 -6.03,4.489 -13.65,6.731 -22.89,6.731 -12.33,0 -22.12,-2.731 -29.41,-8.192 -7.28,-5.461 -13.43,-11.699 -18.47,-18.691 l -33.61,25.609 c 3.36,5.891 7.99,11.274 13.87,16.184 5.88,4.898 12.52,9.168 19.95,12.805 7.42,3.632 15.19,6.437 23.3,8.402 8.13,1.949 16.24,2.789 24.37,2.516 14.55,-0.282 27.16,-1.961 37.8,-5.04 10.64,-3.085 19.39,-8.046 26.25,-14.914 6.86,-6.863 11.9,-15.882 15.12,-27.082 3.21,-11.211 4.83,-24.929 4.83,-41.16 V 111.301 c 0,-5.602 0.28,-11.063 0.84,-16.3791 0.56,-5.3321 1.68,-10.3711 3.36,-15.1211 h -50.82"
         style="fill:#54b836;fill-opacity:1;fill-rule:nonzero;stroke:none"
         id="path54"
         inkscape:connector-curvature="0" /><path
         d="m 3445.05,298.195 v 72.246 h 52.08 v -72.246 h 42.83 v -42.004 h -42.83 V 132.719 c 0,-5.879 1.54,-9.867 4.62,-11.969 3.08,-2.102 7.83,-3.148 14.28,-3.148 3.91,0 7.91,0.476 11.97,1.468 4.05,0.969 8.05,1.891 11.96,2.731 V 78.9609 c -7.27,-0.8398 -14.14,-1.6093 -20.57,-2.3203 -6.45,-0.6914 -13.3,-1.039 -20.58,-1.039 -19.32,0 -33.11,4.4687 -41.38,13.4375 -8.26,8.9492 -12.38,21.2809 -12.38,36.9609 v 130.191 h -30.24 v 42.004 h 30.24"
         style="fill:#54b836;fill-opacity:1;fill-rule:nonzero;stroke:none"
         id="path56"
         inkscape:connector-curvature="0" /><path
         d="m 3629.85,79.8008 h -52.08 V 298.195 h 52.08 z M 3577.77,338.52 v 48.718 h 52.08 V 338.52 h -52.08"
         style="fill:#54b836;fill-opacity:1;fill-rule:nonzero;stroke:none"
         id="path58"
         inkscape:connector-curvature="0" /><path
         d="m 3805.82,189 c 0,24.641 -3.5,42.691 -10.49,54.18 -7.01,11.468 -17.8,17.211 -32.35,17.211 -14.56,0 -25.34,-5.743 -32.34,-17.211 -7,-11.489 -10.5,-29.539 -10.5,-54.18 0,-24.641 3.5,-42.711 10.5,-54.18 7,-11.492 17.78,-17.218 32.34,-17.218 14.55,0 25.34,5.726 32.35,17.218 6.99,11.469 10.49,29.539 10.49,54.18 z m -137.76,0 c 0,17.359 2.17,33.031 6.51,47.039 4.34,13.992 10.57,25.902 18.7,35.699 8.11,9.801 18.05,17.364 29.81,22.68 11.76,5.312 25.06,7.977 39.9,7.977 14.84,0 28.15,-2.665 39.9,-7.977 11.76,-5.316 21.69,-12.879 29.82,-22.68 8.12,-9.797 14.34,-21.707 18.69,-35.699 4.34,-14.008 6.51,-29.68 6.51,-47.039 0,-17.371 -2.17,-33.039 -6.51,-47.039 -4.35,-14.012 -10.57,-25.902 -18.69,-35.699 -8.13,-9.8011 -18.06,-17.3714 -29.82,-22.6839 -11.75,-5.3086 -25.06,-7.9765 -39.9,-7.9765 -14.84,0 -28.14,2.6679 -39.9,7.9765 -11.76,5.3125 -21.7,12.8828 -29.81,22.6839 -8.13,9.797 -14.36,21.687 -18.7,35.699 -4.34,14 -6.51,29.668 -6.51,47.039"
         style="fill:#54b836;fill-opacity:1;fill-rule:nonzero;stroke:none"
         id="path60"
         inkscape:connector-curvature="0" /><path
         d="M 3890.67,79.8008 V 298.195 h 47.87 V 274.68 c 9.8,6.718 20.23,13.019 31.3,18.898 11.05,5.879 23.02,8.817 35.91,8.817 21.83,0 38.07,-6.582 48.72,-19.735 10.63,-13.16 15.95,-30.949 15.95,-53.34 V 79.8008 h -52.08 V 221.762 c 0,14.84 -2.24,24.988 -6.72,30.449 -4.48,5.461 -11.2,8.18 -20.16,8.18 -11.49,0 -21.35,-2.582 -29.61,-7.762 -8.26,-5.188 -14.63,-10.289 -19.1,-15.328 V 79.8008 h -52.08"
         style="fill:#54b836;fill-opacity:1;fill-rule:nonzero;stroke:none"
         id="path62"
         inkscape:connector-curvature="0" /><path
         d="m 4310.66,193.199 h 70.55 l -34.02,131.883 h -0.84 z m -0.84,190.262 h 72.23 l 86.11,-303.6602 h -57.54 l -16.81,65.5192 h -95.75 l -18.07,-65.5192 h -57.54 l 87.37,303.6602"
         style="fill:#54b836;fill-opacity:1;fill-rule:nonzero;stroke:none"
         id="path64"
         inkscape:connector-curvature="0" /><path
         d="m 4604.66,227.641 c 0,10.078 -3.5,18.609 -10.51,25.621 -7,7 -15.4,10.5 -25.19,10.5 -11.2,0 -20.3,-3.5 -27.31,-10.5 -7,-7.012 -10.49,-15.543 -10.49,-25.621 0,-10.082 3.49,-18.621 10.49,-25.621 7.01,-7.008 16.11,-10.5 27.31,-10.5 9.79,0 18.19,3.492 25.19,10.5 7.01,7 10.51,15.539 10.51,25.621 z M 4559.3,84 c -7.28,0 -13.23,-0.9102 -17.85,-2.7305 -4.62,-1.8203 -8.4,-3.9882 -11.34,-6.5078 -2.94,-2.5234 -4.98,-5.25 -6.09,-8.1914 -1.13,-2.9414 -1.68,-5.5312 -1.68,-7.7695 0,-8.4102 4.2,-14.5625 12.59,-18.4805 8.4,-3.9219 23.53,-5.8789 45.37,-5.8789 8.39,0 15.47,0.918 21.21,2.7305 5.73,1.8281 10.35,3.9883 13.85,6.5078 3.5,2.5117 6.03,5.1797 7.56,7.9687 1.55,2.8125 2.32,5.1914 2.32,7.1524 0,2.5195 -1.06,5.25 -3.16,8.1875 -2.1,2.9414 -5.74,5.6719 -10.91,8.1914 -5.19,2.5195 -11.98,4.6211 -20.38,6.3008 C 4582.4,83.1602 4571.9,84 4559.3,84 Z m 115.08,183.121 c -6.16,0 -12.33,-0.211 -18.48,-0.633 -6.16,-0.418 -11.21,-1.886 -15.13,-4.418 3.36,-4.75 6.17,-10.281 8.4,-16.582 2.25,-6.297 3.36,-13.648 3.36,-22.047 0,-10.363 -1.75,-19.812 -5.24,-28.351 -3.51,-8.539 -8.68,-15.969 -15.54,-22.262 -6.86,-6.297 -15.41,-11.207 -25.62,-14.699 -10.23,-3.508 -22.2,-5.258 -35.91,-5.258 -11.49,0 -21.14,-0.699 -28.99,-2.101 -7.84,-1.391 -11.75,-5.18 -11.75,-11.329 0,-5.882 3.57,-9.812 10.71,-11.761 7.14,-1.961 16.02,-3.289 26.67,-3.989 10.63,-0.711 22.11,-1.402 34.44,-2.101 12.32,-0.711 23.79,-2.879 34.44,-6.512 10.63,-3.637 19.53,-9.308 26.67,-17.0077 7.13,-7.7109 10.71,-18.832 10.71,-33.3906 0,-7.8399 -2.03,-15.6016 -6.1,-23.3086 -4.06,-7.6914 -10.22,-14.6328 -18.47,-20.793 -8.26,-6.1484 -18.76,-11.12888 -31.51,-14.90622 -12.74,-3.78125 -27.79,-5.6835988 -45.14,-5.6835988 -29.41,0 -52.99,4.3515588 -70.77,13.0312188 -17.79,8.6797 -26.67,21.6993 -26.67,39.0508 0,6.7305 1.19,12.6094 3.57,17.6485 2.37,5.0429 5.46,9.2421 9.24,12.6015 3.78,3.3594 7.98,5.8789 12.6,7.5586 4.62,1.6797 9.3,2.5195 14.07,2.5195 v 0.8399 c -2.52,1.6836 -5.61,3.3633 -9.24,5.0312 -3.64,1.6797 -7.22,3.7815 -10.71,6.3005 -3.51,2.532 -6.45,5.68 -8.82,9.461 -2.38,3.778 -3.57,8.61 -3.57,14.489 0,5.308 1.32,10.21 3.99,14.699 2.66,4.48 5.81,8.461 9.44,11.972 3.65,3.5 7.36,6.368 11.14,8.61 3.77,2.238 6.93,3.777 9.45,4.621 -8.97,7.277 -16.59,15.387 -22.89,24.359 -6.3,8.949 -9.46,20.16 -9.46,33.598 0,9.512 1.82,18.832 5.46,27.93 3.65,9.089 9.11,17.222 16.39,24.363 7.28,7.129 16.23,12.875 26.88,17.219 10.64,4.336 23.1,6.504 37.38,6.504 9.24,0 18.83,-1.747 28.77,-5.243 9.93,-3.507 18.27,-8.191 24.99,-14.074 5.04,6.723 11.69,11.758 19.95,15.117 8.25,3.36 18.69,4.758 31.29,4.2 v -35.274"
         style="fill:#54b836;fill-opacity:1;fill-rule:nonzero;stroke:none"
         id="path66"
         inkscape:connector-curvature="0" /><path
         d="m 4829.78,215.879 c -0.57,15.121 -4.56,26.883 -11.97,35.281 -7.43,8.391 -17.44,12.602 -30.03,12.602 -12.6,0 -22.62,-4.211 -30.03,-12.602 -7.42,-8.398 -11.42,-20.16 -11.98,-35.281 z m -84.01,-35.277 c 0.56,-22.692 5.18,-38.852 13.86,-48.524 8.68,-9.648 19.18,-14.476 31.51,-14.476 12.03,0 21.56,2.437 28.56,7.339 6.99,4.911 13.71,11.137 20.16,18.7 l 37.8,-23.52 c -10.08,-15.68 -22.62,-27.0312 -37.6,-34.0194 -14.98,-6.9922 -32.97,-10.5 -53.96,-10.5 -14.28,0 -27.09,2.6679 -38.43,7.9765 -11.34,5.3125 -21.01,12.8828 -28.99,22.6839 -7.97,9.797 -14.14,21.687 -18.47,35.699 -4.35,14 -6.52,29.668 -6.52,47.039 0,17.359 2.17,33.031 6.52,47.039 4.33,13.992 10.56,25.902 18.69,35.699 8.12,9.801 18.06,17.364 29.81,22.68 11.76,5.312 25.06,7.977 39.91,7.977 14.27,0 26.94,-2.723 38,-8.184 11.07,-5.473 20.38,-12.813 27.93,-22.051 7.56,-9.25 13.3,-19.949 17.23,-32.129 3.92,-12.179 5.88,-24.851 5.88,-38.011 v -21.418 h -131.89"
         style="fill:#54b836;fill-opacity:1;fill-rule:nonzero;stroke:none"
         id="path68"
         inkscape:connector-curvature="0" /><path
         d="M 4916.3,79.8008 V 298.195 h 47.87 V 274.68 c 9.81,6.718 20.24,13.019 31.3,18.898 11.06,5.879 23.03,8.817 35.91,8.817 21.84,0 38.08,-6.582 48.72,-19.735 10.64,-13.16 15.96,-30.949 15.96,-53.34 V 79.8008 h -52.08 V 221.762 c 0,14.84 -2.25,24.988 -6.72,30.449 -4.48,5.461 -11.2,8.18 -20.17,8.18 -11.48,0 -21.34,-2.582 -29.61,-7.762 -8.26,-5.188 -14.63,-10.289 -19.1,-15.328 V 79.8008 h -52.08"
         style="fill:#54b836;fill-opacity:1;fill-rule:nonzero;stroke:none"
         id="path70"
         inkscape:connector-curvature="0" /><path
         d="m 5266.58,227.219 c -4.2,9.242 -9.24,17.07 -15.12,23.519 -5.89,6.434 -15.13,9.653 -27.73,9.653 -14.56,0 -25.34,-5.743 -32.34,-17.211 -7,-11.489 -10.5,-29.539 -10.5,-54.18 0,-24.641 3.58,-42.711 10.71,-54.18 7.14,-11.492 18.41,-17.218 33.81,-17.218 11.48,0 20.73,3.359 27.73,10.078 6.99,6.718 13.15,14.968 18.47,24.769 l 39.49,-22.25 c -10.65,-19.597 -22.84,-33.6677 -36.55,-42.2107 -13.72,-8.5391 -30.66,-12.6602 -50.82,-12.3867 -14.84,0 -28.14,2.6679 -39.9,7.9765 -11.76,5.3125 -21.7,12.8828 -29.81,22.6839 -8.13,9.797 -14.36,21.687 -18.69,35.699 -4.35,14 -6.52,29.668 -6.52,47.039 0,17.359 2.17,33.031 6.52,47.039 4.33,13.992 10.56,25.902 18.69,35.699 8.11,9.801 18.05,17.364 29.81,22.68 11.76,5.312 25.06,7.977 39.9,7.977 20.73,0 38.7,-5.106 53.98,-15.336 15.25,-10.219 25.96,-24.571 32.13,-43.039 l -43.26,-16.801"
         style="fill:#54b836;fill-opacity:1;fill-rule:nonzero;stroke:none"
         id="path72"
         inkscape:connector-curvature="0" /><path
         d="m 5328.73,44.5195 c 3.92,-0.8398 7.56,-1.3203 10.92,-1.4687 3.36,-0.1406 7,-0.211 10.92,-0.211 8.96,0 16.17,1.3321 21.63,3.9883 5.47,2.6719 9.73,7.0703 12.81,13.2305 2.52,5.3203 4.55,9.8125 6.1,13.4414 1.53,3.6406 2.3,7.6914 2.3,12.1797 0,3.9101 -0.77,8.1094 -2.3,12.5898 -1.55,4.4925 -3.02,8.9685 -4.42,13.4495 l -58.38,186.476 h 52.5 l 36.13,-134.394 h 0.84 l 37.37,134.394 h 52.08 L 5438.35,79.3789 c -5.88,-15.6797 -11.55,-28.6172 -17.01,-38.8476 -5.46,-10.2227 -11.41,-18.3399 -17.84,-24.3594 -6.45,-6.0235 -13.65,-10.22268 -21.63,-12.60159 -7.99,-2.3789 -17.3,-3.5820288 -27.93,-3.5820288 -6.45,0 -11.49,0.1523438 -15.13,0.4218748 -3.64,0.289063 -7,0.710934 -10.08,1.269534 V 44.5195"
         style="fill:#54b836;fill-opacity:1;fill-rule:nonzero;stroke:none"
         id="path74"
         inkscape:connector-curvature="0" /></g></g></svg>