<?xml version="1.0" encoding="UTF-8" standalone="no"?>
<!-- Created with Inkscape (http://www.inkscape.org/) -->
<svg
   xmlns:svg="http://www.w3.org/2000/svg"
   xmlns="http://www.w3.org/2000/svg"
   version="1.0"
   width="800"
   height="365.767"
   viewBox="0 0 800 365.767"
   id="Layer_1"
   xml:space="preserve"><defs
   id="defs14" />
<g
   id="g3">
	<g
   id="g5">
		<g
   id="g7">
			<g
   id="g9">
				<path
   d="M 235.489,250.52 C 235.489,184.554 190.398,165.345 146.135,151.98 L 113.582,142.793 C 87.69,135.284 56.791,122.757 56.791,87.679 C 56.791,47.595 87.69,26.72 125.271,26.72 C 165.343,26.72 187.883,40.923 214.614,78.493 L 207.931,14.192 C 182.039,3.342 153.655,0 126.924,0 C 61.797,0 8.348,30.899 8.348,101.882 C 8.348,172.028 52.612,188.722 96.876,201.249 L 128.612,210.435 C 158.673,219.622 184.553,232.148 184.553,270.568 C 184.553,311.479 151.14,338.21 112.732,338.21 C 60.959,338.21 29.233,319.838 0,272.233 L 0,348.233 C 33.413,359.922 67.63,365.767 101.881,365.767 C 175.368,365.767 235.489,330.688 235.489,250.52 M 486.019,92.696 L 415.036,92.696 C 427.563,97.702 430.893,107.726 426.736,117.75 L 369.945,253.034 L 315.669,113.571 C 312.316,104.384 318.172,96.864 328.196,92.696 L 235.489,92.696 C 245.512,96.864 253.022,107.726 257.202,117.75 L 356.58,365.767 L 460.137,117.75 C 464.294,106.889 475.168,97.702 486.019,92.696 M 800,182.878 C 800,74.325 726.525,7.51 627.147,7.51 L 484.354,7.51 C 498.545,14.193 511.061,26.72 511.061,43.426 L 511.061,323.179 C 511.061,339.874 498.545,352.402 484.354,358.245 L 629.638,358.245 C 718.993,358.245 800,286.436 800,182.878 M 739.89,182.878 C 739.89,270.567 708.154,330.689 612.954,330.689 C 584.558,330.689 567.025,324.006 567.025,302.293 L 567.025,39.247 C 582.044,35.078 598.761,34.24 613.781,34.24 C 700.622,34.24 739.89,104.385 739.89,182.878"
   id="path11" />
			</g>
		</g>
	</g>
</g>
</svg>