<?xml version="1.0" encoding="utf-8"?>
<!-- Generator: Adobe Illustrator 25.4.1, SVG Export Plug-In . SVG Version: 6.00 Build 0)  -->
<svg version="1.1" id="Logo" xmlns="http://www.w3.org/2000/svg" xmlns:xlink="http://www.w3.org/1999/xlink" x="0px" y="0px"
	 viewBox="0 0 1934 334.2" style="enable-background:new 0 0 1934 334.2;" xml:space="preserve">
<style type="text/css">
	.st0{fill:#0E103E;}
	.st1{fill:#00AC66;}
</style>
<polygon class="st0" points="628.9,267.5 628.9,186.1 628.9,101.3 672.8,101.3 672.8,187.1 672.8,267.5 "/>
<polygon class="st0" points="550.5,267.5 550.5,184.1 550.5,101.3 594.3,101.3 594.3,184.6 594.3,267.5 "/>
<path class="st1" d="M1857.8,201.9l46.2,69.8h29.9l-60.5-87.1l58.9-84.5H1903l-44.6,66.5l-45.2-66.5H1783l59.2,84.5l-60.5,87.1h29.6
	L1857.8,201.9z M1737.4,185.9c0,50.9-23.9,67.2-51.6,67.2c-28.9,0-53.2-16.3-53.2-67.2c0-50.6,24.9-66.5,52.6-66.5
	C1714.1,119.4,1737.4,135.4,1737.4,185.9 M1685.2,274.7c41.2,0,78.2-24.3,78.2-88.8c0-64.2-36.9-88.5-78.2-88.5
	s-78.5,24.3-78.5,88.5C1606.7,250.4,1644,274.7,1685.2,274.7 M1515.3,243.1l-47.6-143h-27.9l57.9,163.3c2.7,7.6,9.3,11,17.3,11
	c7.7,0,14.6-3.3,17.3-11l57.9-163.3h-25.9L1515.3,243.1z M1391.9,182.9c0,0-20-14.6-55.9-14.6c-32.6,0-59.9,18.3-59.9,51.2
	c0,38.9,28.6,52.2,70.2,52.2h46.9c14.6,0,23.3-8.3,23.3-22.3V156c0-40.6-24.6-58.5-65.5-58.5c-42.9,0-69.2,19.3-69.2,19.3l9,22.3
	c0,0,23.6-16.3,59.5-16.3c25.9,0,41.6,7.7,41.6,36.3V182.9z M1346.3,248.8c-34.6,0-44.2-11.3-44.2-28.9c0-18.3,13.6-28.3,33.9-28.3
	c35.9,0,55.9,15.3,55.9,15.3v41.9H1346.3z M1125.5,271.7V124.4h36.2c30.3,0,50.2,10,50.2,46.9v100.4h25.9V171.3
	c0-55.2-33.2-71.2-76.2-71.2h-37.2c-15.6,0-24.6,8.3-24.6,22.6v149L1125.5,271.7L1125.5,271.7z M977.2,290.3
	c-5,14.6-13,20.6-29.9,20.6h-4.7v23.3h6.7c25.6,0,41.9-12.3,50.2-35.9l70.5-198.2H1044l-44.6,132l-52.2-132h-27.6l66.8,163.6
	L977.2,290.3z M864.8,24.3v98.1c0,0-21.3-23.9-53.9-23.9c-35.9,0-68.8,23.9-68.8,84.5c0,62.8,36.9,88.8,81.5,88.8h42.2
	c15,0,23.9-8.6,23.9-22.9V24.3H864.8z M864.8,247.8h-41.2c-29.9,0-55.5-17-55.5-64.9c0-45.6,20-59.9,42.6-59.9
	c30.6,0,54.2,25.9,54.2,25.9L864.8,247.8L864.8,247.8z"/>
<path class="st0" d="M248.7,139.6c-24.1,0-43.6,19.6-43.6,43.6s19.6,43.6,43.6,43.6c24.1,0,43.6-19.6,43.6-43.6
	S272.8,139.6,248.7,139.6 M248.9,271.9c-48.8,0-88.4-39.7-88.4-88.4s39.7-88.4,88.4-88.4s88.4,39.7,88.4,88.4
	S297.6,271.9,248.9,271.9"/>
<path class="st0" d="M442.6,226.7h-15.5c-0.2,0-0.4,0-0.7,0c-7-0.7-13.3-1.1-17.4-5.5c-0.1-0.1-0.2-0.3-0.4-0.4c0,0-0.1-0.1-0.1-0.1
	c-3.1-3.8-4.6-10-4.4-19.9c0-0.4,0-8.8,0-20.8v-1.1c0-25.4,16.3-37.4,39.8-37.4c24.4,0,40.2,18.8,40.2,43.2
	C484.2,209,467,226.7,442.6,226.7 M443,98.5c-2.1,0-4.3,0.1-6.9,0.3l-0.3,0c-11.5,0.9-22.5,4.6-32.8,9.8V51h-43.1v85.6l0,0v77.8
	c0,49.9,26.8,56.2,56.1,56.8l0,0.1c0.6,0,26.5,0,27,0c49.3,0,84.4-37.1,84.4-86.4C527.5,135.6,492.3,98.5,443,98.5"/>
<path class="st0" d="M122.9,268.4c-20-0.2-53.5,1.8-69.5-11.5C39.5,245.3,35,230.3,35,213.8v-66.5H0v-43.3h35V55.5h44.3v48.6h60.4
	v43.6H78.9v6.3v16.9c0,6.3,0,8.9,0.1,15.2c0.3,15.8-3.6,40.5,20,41.8c2.8,0.1,42.7,0.1,42.7,0.1l0,40.3L122.9,268.4z"/>
<path class="st0" d="M679,21.3C674.8,5.9,658.8-3.2,643.4,1c-11.1,3-16.5,10.5-21.4,17.1c-3.9,5.4-7.4,10-13.4,11.8
	c-6.2,1.4-11.4-1-17.5-3.8c-7.4-3.4-15.8-7.3-27-4.5c-15.5,3.8-25.1,19.5-21.3,35.1c0.1,0.3,0.2,0.7,0.3,1c0.1,0.3,0.1,0.7,0.2,1
	c4.2,15.4,20.2,24.5,35.7,20.3c11.6-3.2,16.9-10.7,21.5-17.3c3.9-5.5,6.9-9.9,13.3-11.7c6.4-1.6,11.2,0.8,17.3,3.7
	c7.3,3.5,15.5,7.5,27.2,4.7c15.5-3.8,25.1-19.5,21.3-35c-0.1-0.3-0.2-0.7-0.3-1C679.2,22,679.1,21.6,679,21.3"/>
</svg>
