<svg width="140" height="38" viewBox="0 0 140 38" fill="none" xmlns="http://www.w3.org/2000/svg">
<path d="M22.7672 5.65723L25.2705 12.5503L32.0201 9.40836L28.8143 16.0142L35.8529 18.4685L28.8143 20.9185L32.0201 27.5243L25.2705 24.3824L22.7672 31.2755L20.2595 24.3824L13.5099 27.5243L16.7158 20.9185L9.67273 18.4685L16.7158 16.0142L13.5099 9.40836L20.2595 12.5503L22.7672 5.65723Z" fill="#E96704"/>
<path d="M36.5799 3.35083L38.1583 1.28378H39.1499V12.9463H37.6603C36.6332 6.20117 30.604 1.09231 22.9251 1.09231C14.7127 1.09231 7.31171 7.74601 7.31171 18.2988C7.31171 29.4478 14.1747 35.923 22.8184 35.923C31.2665 35.923 35.8996 31.0274 37.6648 24.6087H39.1476V36.2712H38.1961L36.3909 33.7167C36.0041 33.1815 35.426 33.4818 35.1904 33.6123C31.371 35.7185 27.4582 37.011 22.7939 37.011C10.0974 37.011 1.2002 29.6131 1.2002 18.351C1.2002 7.50231 10.2485 0.00439453 22.9184 0.00439453C27.4893 0.00439453 31.2153 1.36647 34.9903 3.36824C35.2437 3.51184 36.0174 3.96877 36.5732 3.35518" fill="#221B16"/>
<path d="M74.5608 18.5208C74.5608 13.573 79.0069 9.40845 84.369 9.40845C89.9267 9.40845 93.8926 13.0508 93.8926 18.4382C93.8926 23.4121 89.4687 27.5244 84.0844 27.5244C78.4979 27.5331 74.5608 23.8864 74.5608 18.5208ZM89.8378 18.5208C89.8378 13.1291 87.5435 10.0177 84.1422 10.0177C80.6565 10.0177 78.5579 12.8245 78.5579 18.4077C78.5579 23.8255 80.8521 26.9108 84.3112 26.9108C87.7703 26.9108 89.8355 24.1345 89.8355 18.5208H89.8378Z" fill="#221B16"/>
<path d="M98.3042 18.5208C98.3042 13.573 102.75 9.40845 108.112 9.40845C113.67 9.40845 117.636 13.0508 117.636 18.4382C117.636 23.4121 113.212 27.5244 107.828 27.5244C102.243 27.5331 98.3042 23.8864 98.3042 18.5208ZM113.581 18.5208C113.581 13.1291 111.287 10.0177 107.886 10.0177C104.4 10.0177 102.301 12.8245 102.301 18.4077C102.301 23.8255 104.595 26.9108 108.055 26.9108C111.514 26.9108 113.581 24.1345 113.581 18.5208Z" fill="#221B16"/>
<path d="M139.872 26.6235L139.777 26.6061C138.554 26.4668 138.101 26.023 136.94 24.2431L133.254 18.5468C135.891 17.9376 137.536 16.2709 137.536 14.1299C137.536 11.2665 135.126 9.73901 130.338 9.73901L122.141 9.76514L122.232 10.2395L122.899 10.3221C124.202 10.4353 124.373 10.518 124.373 10.7399V26.0795C124.373 26.2971 123.866 26.4973 123.128 26.58L122.192 26.6692L122.103 27.137H130.329L130.24 26.6648L129.477 26.58C128.486 26.4973 128.059 26.3841 128.059 26.1622V18.4641C128.397 18.6034 129.277 18.7165 129.646 18.7992L133.87 26.1622L134.381 27.1326H139.992L139.872 26.6235ZM129.564 18.1377C129.058 18.1057 128.555 18.033 128.061 17.9202V10.3439L129.195 10.3178C132.032 10.2612 133.619 11.7625 133.619 14.2343C133.619 16.706 132.089 18.0507 129.564 18.1334V18.1377Z" fill="#221B16"/>
<path d="M68.813 21.8563L67.9704 23.7994C66.7211 25.7707 65.1649 26.9108 62.6128 26.9108C58.9403 26.9108 56.2548 23.6253 56.237 18.4642C56.2659 13.2988 58.9336 10.0176 62.6128 10.0176C65.1649 10.0176 66.7211 11.1578 67.9704 13.1291L68.8152 15.0721H69.5177L68.7463 10.3788H67.717C66.6677 9.94365 64.3424 9.40405 62.4172 9.40405C56.3215 9.40405 52.2422 12.9898 52.2422 18.2684C52.2422 18.3337 52.2422 18.3989 52.2422 18.4642C52.2422 18.5295 52.2422 18.5948 52.2422 18.66C52.2422 23.9386 56.3215 27.5244 62.4172 27.5244C64.3468 27.5244 66.6677 26.9978 67.717 26.5496H68.7463L69.5177 21.8563H68.813Z" fill="#221B16"/>
</svg>
