<?xml version="1.0" encoding="utf-8"?>
<!-- Generator: Adobe Illustrator 25.0.1, SVG Export Plug-In . SVG Version: 6.00 Build 0)  -->
<svg version="1.1" id="Ebene_1" xmlns="http://www.w3.org/2000/svg" xmlns:xlink="http://www.w3.org/1999/xlink" x="0px" y="0px"
	 viewBox="0 0 527 310" style="enable-background:new 0 0 527 310;" xml:space="preserve">
<style type="text/css">
	.st0{fill:#87888A;}
	.st1{fill:#FF9933;}
</style>
<g>
	<path class="st0" d="M361.47,158.85c0.64-0.28,1.6-0.68,2.97-1.2V53.29h-37.26v129.52C338.51,172.24,350.98,162.49,361.47,158.85"
		/>
	<path class="st0" d="M248.59,187.46c11.69,2.55,24.37,6.94,36.95,14.2V87.56h32.2V53.39H217.32v34.17h31.27V187.46z"/>
	<path class="st0" d="M131.38,191.1c12.7,0,24.98-0.53,36.79-1.54l-0.04-48.94l31.3-0.05l-0.04-34.18h-31.22l-0.03-18.71h39.43
		V53.32l-76.97,0.05v137.72C130.86,191.09,131.12,191.1,131.38,191.1"/>
	<path class="st1" d="M301.56,223.99l-0.41,0.51l-0.49-0.44c-26.38-23.78-56.6-29.7-77.3-30.47c-1.74-0.07-3.41-0.1-5.01-0.1
		c-12.34,0-20.44,1.72-20.53,1.74c-20.47,3.43-42.74,5.16-66.42,5.16c-6.27,0-12.65-0.12-19.11-0.37c-26.67-1-47.24-3.85-54.41-4.96
		c32.66,20.95,139.24,31.4,140.34,31.51c63.32,4.6,85.35,26.57,85.56,26.79c5.84,4.96,11.51,7.61,16.84,7.81
		c0.21,0.01,0.43,0.02,0.64,0.02c9.74,0,15.08-8.4,15.14-8.49c41.44-53.89,50.22-60.53,51.6-61.33
		c9.53-10.59,88.23-44.23,112.01-54.24c-101.33,23.07-114.98,30.3-115.11,30.38C341.18,175.32,301.95,223.5,301.56,223.99"/>
</g>
</svg>
